<?xml version="1.0" encoding="utf-8"?>
<!-- Generator: Adobe Illustrator 16.2.0, SVG Export Plug-In . SVG Version: 6.00 Build 0)  -->
<!DOCTYPE svg PUBLIC "-//W3C//DTD SVG 1.1//EN" "http://www.w3.org/Graphics/SVG/1.1/DTD/svg11.dtd">
<svg version="1.1" xmlns="http://www.w3.org/2000/svg" xmlns:xlink="http://www.w3.org/1999/xlink" x="0px" y="0px"
	 width="31.561px" height="19.316px" viewBox="0 0 31.561 19.316" enable-background="new 0 0 31.561 19.316" xml:space="preserve">
<g id="Layer_2">
</g>
<g id="Layer_4">
</g>
<g id="Layer_3">
	<path fill-rule="evenodd" clip-rule="evenodd" fill="#FFFFFF" d="M0,9.658C0,4.325,4.324,0,9.658,0
		c6.209,0,7.699,4.75,14.936,4.957c0.273,0.007,0.49,0.23,0.49,0.504v8.395c0,0.273-0.217,0.497-0.49,0.504
		c-7.236,0.207-8.727,4.957-14.936,4.957C4.324,19.316,0,14.991,0,9.658L0,9.658z M29.967,12.803c0-2.097,0-4.192,0-6.289
		c0-0.098,0.035-0.182,0.109-0.248c0.07-0.066,0.158-0.096,0.256-0.087c0.688,0.06,1.229,0.639,1.229,1.341c0,1.426,0,2.852,0,4.277
		c0,0.702-0.541,1.281-1.229,1.341c-0.098,0.009-0.186-0.021-0.256-0.087C30.002,12.984,29.967,12.9,29.967,12.803L29.967,12.803z
		 M27.84,13.343c0-2.456,0-4.913,0-7.369c0-0.098,0.037-0.182,0.109-0.247c0.072-0.066,0.158-0.097,0.256-0.088
		c0.688,0.06,1.229,0.639,1.229,1.341c0,1.786,0,3.571,0,5.357c0,0.702-0.541,1.281-1.229,1.341
		c-0.098,0.009-0.184-0.021-0.256-0.087C27.877,13.524,27.84,13.44,27.84,13.343L27.84,13.343z M25.713,13.883V5.434
		c0-0.098,0.037-0.182,0.109-0.248c0.072-0.065,0.16-0.095,0.258-0.087c0.686,0.06,1.229,0.64,1.229,1.342v6.436
		c0,0.702-0.543,1.282-1.229,1.342c-0.098,0.009-0.186-0.021-0.258-0.087C25.75,14.064,25.713,13.98,25.713,13.883z"/>
</g>
</svg>
