<?xml version="1.0" encoding="utf-8"?>
<!-- Generator: Adobe Illustrator 16.2.0, SVG Export Plug-In . SVG Version: 6.00 Build 0)  -->
<!DOCTYPE svg PUBLIC "-//W3C//DTD SVG 1.1//EN" "http://www.w3.org/Graphics/SVG/1.1/DTD/svg11.dtd">
<svg version="1.1" xmlns="http://www.w3.org/2000/svg" xmlns:xlink="http://www.w3.org/1999/xlink" x="0px" y="0px" width="75px"
	 height="75px" viewBox="0 0 75 75" enable-background="new 0 0 75 75" xml:space="preserve">
<g id="Layer_1">
	<g>
		<path fill="#FFFFFF" d="M33.734,1.602l-2.016,13.044L23.894,4.032c-2.246,0.908-4.381,2.044-6.376,3.369l4.249,12.488L9.94,14.151
			c-1.556,1.835-2.931,3.829-4.1,5.953l9.54,9.079l-13.136,0.44c-0.517,2.319-0.81,4.722-0.859,7.188l12.643,3.581l-11.43,6.523
			c0.629,2.361,1.489,4.623,2.557,6.766l12.858-2.73l-7.1,11.103c1.633,1.775,3.438,3.386,5.394,4.805l10.116-8.42l-1.147,13.155
			c2.237,0.802,4.577,1.386,6.993,1.729l5.064-12.182l5.068,12.182c2.418-0.343,4.758-0.927,6.996-1.729l-1.15-13.155l10.117,8.42
			c1.953-1.419,3.76-3.029,5.391-4.805l-7.098-11.103l12.858,2.73c1.067-2.143,1.928-4.404,2.556-6.766l-11.426-6.523l12.64-3.581
			c-0.047-2.466-0.345-4.868-0.859-7.188l-13.136-0.44l9.538-9.079c-1.168-2.124-2.542-4.118-4.098-5.953L52.906,19.89l4.246-12.488
			c-1.995-1.325-4.13-2.461-6.376-3.369l-7.821,10.613L40.939,1.602c-1.184-0.12-2.387-0.18-3.605-0.18
			C36.121,1.422,34.918,1.481,33.734,1.602L33.734,1.602z"/>
		<circle fill="#FFFFFF" cx="37.336" cy="37.371" r="19.824"/>
	</g>
</g>
<g id="gear_x5F_spike">
</g>
<g id="gear_x5F_flower">
</g>
</svg>
