<?xml version="1.0" encoding="utf-8"?>
<!-- Generator: Adobe Illustrator 16.2.0, SVG Export Plug-In . SVG Version: 6.00 Build 0)  -->
<!DOCTYPE svg PUBLIC "-//W3C//DTD SVG 1.1//EN" "http://www.w3.org/Graphics/SVG/1.1/DTD/svg11.dtd">
<svg version="1.1" xmlns="http://www.w3.org/2000/svg" xmlns:xlink="http://www.w3.org/1999/xlink" x="0px" y="0px"
	 width="28.767px" height="27.231px" viewBox="0 0 28.767 27.231" enable-background="new 0 0 28.767 27.231" xml:space="preserve">
<g id="Layer_2">
</g>
<g id="Layer_4">
</g>
<g id="Layer_3">
	<g>
		<path fill="#FFFFFF" d="M17.433,24.699V7.505c0-1.397-1.136-2.533-2.532-2.533H4.909H3.073H2.534C1.137,4.972,0,6.108,0,7.505
			v17.194c0,1.396,1.137,2.532,2.534,2.532H14.9C16.297,27.231,17.433,26.096,17.433,24.699z M9.713,6.702
			c0,0.55-0.446,0.996-0.996,0.996S7.721,7.252,7.721,6.702c0-0.55,0.446-0.996,0.996-0.996S9.713,6.152,9.713,6.702z M15.21,24.61
			c0,0.318-0.259,0.578-0.578,0.578H2.802c-0.318,0-0.578-0.26-0.578-0.578V8.872c0-0.318,0.26-0.578,0.578-0.578h11.83
			c0.319,0,0.578,0.259,0.578,0.578V24.61z"/>
		<path fill="#FFFFFF" d="M13.866,22.261h12.367c1.396,0,2.533-1.137,2.533-2.533V2.533C28.767,1.136,27.63,0,26.233,0h-0.54h-1.836
			h-9.991c-1.396,0-2.532,1.136-2.532,2.533v17.194C11.334,21.124,12.471,22.261,13.866,22.261z M20.05,0.734
			c0.55,0,0.996,0.446,0.996,0.996c0,0.55-0.446,0.996-0.996,0.996S19.054,2.28,19.054,1.73C19.054,1.18,19.5,0.734,20.05,0.734z
			 M13.557,3.9c0-0.318,0.26-0.578,0.578-0.578h11.831c0.318,0,0.577,0.259,0.577,0.578v15.738c0,0.318-0.259,0.578-0.577,0.578
			H14.135c-0.318,0-0.578-0.26-0.578-0.578V3.9z"/>
	</g>
</g>
</svg>
