<?xml version="1.0" encoding="utf-8"?>
<!-- Generator: Adobe Illustrator 16.2.0, SVG Export Plug-In . SVG Version: 6.00 Build 0)  -->
<!DOCTYPE svg PUBLIC "-//W3C//DTD SVG 1.1//EN" "http://www.w3.org/Graphics/SVG/1.1/DTD/svg11.dtd">
<svg version="1.1" xmlns="http://www.w3.org/2000/svg" xmlns:xlink="http://www.w3.org/1999/xlink" x="0px" y="0px"
	 width="25.723px" height="28.787px" viewBox="0 0 25.723 28.787" enable-background="new 0 0 25.723 28.787" xml:space="preserve">
<g id="Layer_2">
</g>
<g id="Layer_4">
</g>
<g id="Layer_3">
	<g>
		<g>
			<path fill="#FFFFFF" d="M3.492,1.657L7.411,8.44l3.661,2.373c-0.579,0.211-1.063,0.631-1.341,1.198l-0.507,1.042l-3.673-2.382
				c-0.192-0.124-0.35-0.292-0.465-0.489L0.995,3.1C0.864,2.873,0.802,2.625,0.802,2.38c0-0.499,0.259-0.983,0.721-1.251
				C2.213,0.732,3.095,0.968,3.492,1.657z"/>
			<circle fill="#FFFFFF" cx="22.359" cy="22.62" r="3.364"/>
			<path fill="#FFFFFF" d="M15.745,21.011c0.481,0.542,1.199,0.836,1.922,0.797l-1.047,1.561l3.189,2.911
				c0.589,0.537,0.631,1.449,0.094,2.037s-1.449,0.629-2.037,0.094l-4.107-3.749c-0.309-0.282-0.469-0.671-0.469-1.066
				c0-0.278,0.079-0.558,0.244-0.802l1.633-2.432L15.745,21.011z"/>
			<path fill="#FFFFFF" d="M7.874,18.022l2.723-5.59c0.211-0.434,0.623-0.731,1.099-0.797c0.477-0.065,0.954,0.11,1.274,0.471
				l4.402,4.951l1.957-2.954l-1.235-4.32C17.878,9.015,18.317,8.218,19.083,8s1.563,0.226,1.783,0.989l1.418,4.96
				c0.116,0.406,0.049,0.842-0.185,1.194l-3.358,5.067c-0.247,0.373-0.653,0.61-1.1,0.642c-0.445,0.031-0.881-0.146-1.18-0.48
				l-4.217-4.741l-2.477,5.086c-0.18,0.366-0.504,0.641-0.895,0.753c-0.393,0.114-0.813,0.057-1.16-0.157l-6.229-3.846
				c-0.439-0.273-0.684-0.746-0.684-1.229c0-0.258,0.07-0.521,0.215-0.756c0.42-0.677,1.309-0.887,1.984-0.469L7.874,18.022z"/>
		</g>
	</g>
</g>
</svg>
