<?xml version="1.0" encoding="utf-8"?>
<!-- Generator: Adobe Illustrator 16.2.0, SVG Export Plug-In . SVG Version: 6.00 Build 0)  -->
<!DOCTYPE svg PUBLIC "-//W3C//DTD SVG 1.1//EN" "http://www.w3.org/Graphics/SVG/1.1/DTD/svg11.dtd">
<svg version="1.1" xmlns="http://www.w3.org/2000/svg" xmlns:xlink="http://www.w3.org/1999/xlink" x="0px" y="0px" width="14.84px"
	 height="31.877px" viewBox="0 0 14.84 31.877" enable-background="new 0 0 14.84 31.877" xml:space="preserve">
<g id="Layer_2">
</g>
<g id="Layer_4">
</g>
<g id="Layer_3">
	<g>
		<path fill="#FFFFFF" d="M13.253,0.32c0,0-1.565-0.004-2.661,5.807c-0.906,4.808-0.14,12.339,0.707,12.944
			c0.847,0.605,1.403,0.846,1.161,3.023c-0.242,2.177-1.896,8.233-0.767,9.08c1.13,0.848,1.923,1.331,2.77-0.967
			c0.847-2.299,0-26.259,0-26.259S14.391,0.182,13.253,0.32z"/>
		<path fill="#FFFFFF" d="M4.067,16.441c2.26-1.908,2.159-4.117,2.159-4.117V1.583H5.323v9.034H4.52V1.583H3.515v9.034H3.113H2.712
			V1.583H1.708v9.034H0.904V1.583H0.001v10.741c0,0-0.101,2.209,2.158,4.117c0,0,0.904-1.182-0.05,5.596
			c-0.954,6.778-0.301,9.389,1.004,9.841c1.306-0.452,1.958-3.063,1.004-9.841C3.164,15.259,4.067,16.441,4.067,16.441z"/>
	</g>
</g>
</svg>
