<?xml version="1.0" encoding="utf-8"?>
<!-- Generator: Adobe Illustrator 16.2.0, SVG Export Plug-In . SVG Version: 6.00 Build 0)  -->
<!DOCTYPE svg PUBLIC "-//W3C//DTD SVG 1.1//EN" "http://www.w3.org/Graphics/SVG/1.1/DTD/svg11.dtd">
<svg version="1.1" xmlns="http://www.w3.org/2000/svg" xmlns:xlink="http://www.w3.org/1999/xlink" x="0px" y="0px" width="75px"
	 height="75px" viewBox="0 0 75 75" enable-background="new 0 0 75 75" xml:space="preserve">
<g id="Layer_1">
</g>
<g id="gear_x5F_spike">
	<path fill="none" stroke="#FFFFFF" stroke-miterlimit="10" d="M8.844,37.868c0-15.574,12.604-28.201,28.148-28.201
		c15.541,0,28.148,12.627,28.148,28.201S52.533,66.07,36.992,66.07C21.447,66.07,8.844,53.441,8.844,37.868L8.844,37.868z
		 M64.104,37.868c0-15-12.143-27.166-27.111-27.166c-14.975,0-27.113,12.166-27.113,27.166c0,15.001,12.139,27.166,27.113,27.166
		C51.961,65.033,64.104,52.869,64.104,37.868L64.104,37.868z M7.582,37.868c0,16.269,13.168,29.466,29.41,29.466
		c16.238,0,29.406-13.197,29.406-29.466c0-16.271-13.168-29.465-29.406-29.465C20.75,8.402,7.582,21.596,7.582,37.868L7.582,37.868z
		 M17.303,14.174l-4.898-2.541l2.219,5.062c-0.93,0.984-1.795,2.027-2.586,3.128l-5.371-1.239l3.406,4.343
		c-0.658,1.182-1.24,2.409-1.736,3.681l-5.51,0.139l4.377,3.356c-0.338,1.301-0.59,2.635-0.756,3.996l-5.303,1.508l5.076,2.163
		c0,0.032,0,0.063,0,0.097c0,1.344,0.086,2.664,0.246,3.962l-4.758,2.781l5.443,0.828c0.342,1.329,0.758,2.621,1.258,3.873
		l-3.92,3.877l5.48-0.551c0.652,1.191,1.385,2.338,2.184,3.432l-2.838,4.738l5.176-1.906c0.924,0.992,1.914,1.921,2.959,2.781
		l-1.568,5.299l4.535-3.131c1.135,0.728,2.326,1.383,3.555,1.961l-0.209,5.514l3.617-4.158c1.279,0.419,2.596,0.758,3.941,1.008
		l1.168,5.396l2.473-4.939c0.672,0.043,1.346,0.064,2.029,0.064c0.682,0,1.357-0.021,2.025-0.064l2.473,4.939l1.17-5.396
		c1.346-0.25,2.662-0.589,3.939-1.008l3.617,4.158l-0.211-5.514c1.232-0.578,2.42-1.233,3.555-1.961l4.539,3.131l-1.568-5.299
		c1.045-0.86,2.033-1.789,2.957-2.781l5.178,1.906l-2.834-4.738c0.795-1.094,1.525-2.24,2.178-3.432l5.482,0.551l-3.924-3.877
		c0.506-1.252,0.922-2.544,1.256-3.873l5.445-0.828l-4.756-2.781c0.162-1.299,0.25-2.618,0.25-3.962c0-0.033,0-0.065,0-0.097
		l5.072-2.163L67.531,34.1c-0.166-1.361-0.418-2.695-0.754-3.996l4.377-3.356l-5.51-0.139c-0.496-1.272-1.08-2.5-1.734-3.681
		l3.408-4.343l-5.377,1.239c-0.791-1.102-1.66-2.144-2.586-3.128l2.223-5.062l-4.9,2.541c-1.037-0.867-2.131-1.666-3.279-2.393
		l0.893-5.45l-4.102,3.676c-1.221-0.58-2.482-1.082-3.781-1.5l-0.486-5.495l-3.07,4.583c-1.311-0.252-2.658-0.424-4.025-0.505
		L36.992,1.88L35.154,7.09c-1.369,0.081-2.713,0.253-4.021,0.505l-3.076-4.583l-0.482,5.495c-1.299,0.418-2.563,0.92-3.773,1.5
		l-4.111-3.676l0.893,5.45C19.439,12.508,18.344,13.307,17.303,14.174z"/>
</g>
<g id="gear_x5F_flower">
</g>
</svg>
