<?xml version="1.0" encoding="utf-8"?>
<!-- Generator: Adobe Illustrator 18.0.0, SVG Export Plug-In . SVG Version: 6.00 Build 0)  -->
<!DOCTYPE svg PUBLIC "-//W3C//DTD SVG 1.1//EN" "http://www.w3.org/Graphics/SVG/1.1/DTD/svg11.dtd">
<svg version="1.1" id="Layer_1" xmlns="http://www.w3.org/2000/svg" xmlns:xlink="http://www.w3.org/1999/xlink" x="0px" y="0px"
	 viewBox="0 0 640 480" enable-background="new 0 0 640 480" xml:space="preserve">
<g>
	<g id="Layer_2_7_">
	</g>
	<g id="Layer_4_4_">
	</g>
	<g id="Layer_3_6_">
		<g>
			<path fill="#FF7800" d="M338.4,187c0,0-5.3,0-9,19.7c-3.1,16.3-0.5,41.8,2.4,43.9c2.9,2.1,4.8,2.9,3.9,10.2
				c-0.8,7.4-6.4,27.9-2.6,30.8c3.8,2.9,6.5,4.5,9.4-3.3c2.9-7.8,0-89,0-89S342.3,186.5,338.4,187z"/>
			<path fill="#FF7800" d="M307.3,241.6c7.7-6.5,7.3-14,7.3-14v-36.4h-3.1v30.6h-2.7v-30.6h-3.4v30.6h-1.4h-1.4v-30.6h-3.4v30.6
				h-2.7v-30.6h-3.1v36.4c0,0-0.3,7.5,7.3,14c0,0,3.1-4-0.2,19c-3.2,23-1,31.8,3.4,33.4c4.4-1.5,6.6-10.4,3.4-33.4
				C304.2,237.6,307.3,241.6,307.3,241.6z"/>
		</g>
	</g>
</g>
</svg>
