<?xml version="1.0" encoding="utf-8"?>
<!-- Generator: Adobe Illustrator 18.1.1, SVG Export Plug-In . SVG Version: 6.00 Build 0)  -->
<svg version="1.1" xmlns="http://www.w3.org/2000/svg" xmlns:xlink="http://www.w3.org/1999/xlink" x="0px" y="0px"
	 viewBox="0 0 216 216" enable-background="new 0 0 216 216" xml:space="preserve">
<g id="Layer_1" display="none">
	<g display="inline">
		<g id="Layer_2_7_">
		</g>
		<g id="Layer_4_4_">
		</g>
		<g id="Layer_3_6_">
			<g>
				<path fill="#FF7800" d="M127.4,54c0,0-5.3,0-9,19.7c-3.1,16.3-0.5,41.8,2.4,43.9c2.9,2.1,4.8,2.9,3.9,10.2
					c-0.8,7.4-6.4,27.9-2.6,30.8c3.8,2.9,6.5,4.5,9.4-3.3c2.9-7.8,0-89,0-89S131.3,53.5,127.4,54z"/>
				<path fill="#FF7800" d="M96.3,108.6c7.7-6.5,7.3-14,7.3-14V58.2h-3.1v30.6h-2.7V58.2h-3.4v30.6h-1.4h-1.4V58.2h-3.4v30.6h-2.7
					V58.2h-3.1v36.4c0,0-0.3,7.5,7.3,14c0,0,3.1-4-0.2,19c-3.2,23-1,31.8,3.4,33.4c4.4-1.5,6.6-10.4,3.4-33.4
					C93.2,104.6,96.3,108.6,96.3,108.6z"/>
			</g>
		</g>
	</g>
</g>
<g id="Layer_2" display="none">
	<g display="inline">
		<g id="Layer_3_5_">
			<g>
				<g>
					<path fill="#FF7800" d="M58,145.8L84,130.8l9.1-14.1c0.8,2.2,2.4,4.1,4.6,5.2l4,1.9l-9.2,14.1c-0.5,0.7-1.1,1.3-1.9,1.8
						l-27.2,15.7c-0.9,0.5-1.8,0.7-2.8,0.7c-1.9,0-3.8-1-4.8-2.8C54.4,150.8,55.3,147.4,58,145.8z"/>
					<circle fill="#FF7800" cx="138.5" cy="73.4" r="12.9"/>
					<path fill="#FF7800" d="M132.3,98.8c2.1-1.8,3.2-4.6,3.1-7.4l6,4l11.2-12.3c2.1-2.3,5.6-2.4,7.8-0.4c2.3,2.1,2.4,5.6,0.4,7.8
						l-14.4,15.8c-1.1,1.2-2.6,1.8-4.1,1.8c-1.1,0-2.1-0.3-3.1-0.9l-9.3-6.3L132.3,98.8z"/>
					<path fill="#FF7800" d="M120.8,129l-21.5-10.5c-1.7-0.8-2.8-2.4-3.1-4.2c-0.2-1.8,0.4-3.7,1.8-4.9l19-16.9L105.8,85l-16.6,4.7
						c-3,0.8-6-0.9-6.9-3.8c-0.8-2.9,0.9-6,3.8-6.9l19.1-5.4c1.6-0.4,3.2-0.2,4.6,0.7l19.5,12.9c1.4,0.9,2.3,2.5,2.5,4.2
						c0.1,1.7-0.6,3.4-1.8,4.5l-18.2,16.2l19.5,9.5c1.4,0.7,2.5,1.9,2.9,3.4c0.4,1.5,0.2,3.1-0.6,4.5l-14.8,23.9
						c-1,1.7-2.9,2.6-4.7,2.6c-1,0-2-0.3-2.9-0.8c-2.6-1.6-3.4-5-1.8-7.6L120.8,129z"/>
				</g>
			</g>
		</g>
	</g>
</g>
<g id="Layer_3" display="none">
	<g display="inline">
		<g id="Layer_3_4_">
			<g>
				<path fill="#FF7800" d="M96.4,64.8v67.6c0,5.5,4.5,10,9.9,10h39.3h7.2h2.1c5.5,0,10-4.5,10-10V64.8c0-5.5-4.5-9.9-10-9.9h-48.6
					C100.9,54.8,96.4,59.3,96.4,64.8z M126.8,135.5c0-2.2,1.8-3.9,3.9-3.9c2.2,0,3.9,1.8,3.9,3.9c0,2.2-1.8,3.9-3.9,3.9
					C128.5,139.4,126.8,137.6,126.8,135.5z M105.2,65.1c0-1.2,1-2.3,2.3-2.3h46.5c1.2,0,2.3,1,2.3,2.3V127c0,1.3-1,2.3-2.3,2.3
					h-46.5c-1.3,0-2.3-1-2.3-2.3V65.1z"/>
				<path fill="#FF7800" d="M110.5,74.3H61.9c-5.5,0-10,4.5-10,9.9v67.6c0,5.5,4.5,10,10,10H64h7.2h39.3c5.5,0,9.9-4.5,9.9-10V84.3
					C120.4,78.8,115.9,74.3,110.5,74.3z M86.2,158.9c-2.2,0-3.9-1.8-3.9-3.9c0-2.2,1.8-3.9,3.9-3.9c2.2,0,3.9,1.8,3.9,3.9
					C90.1,157.2,88.3,158.9,86.2,158.9z M111.7,146.5c0,1.3-1,2.3-2.3,2.3H62.9c-1.3,0-2.3-1-2.3-2.3V84.7c0-1.2,1-2.3,2.3-2.3h46.5
					c1.2,0,2.3,1,2.3,2.3V146.5z"/>
			</g>
		</g>
	</g>
</g>
<g id="Layer_4">
	<path fill="#FF7800" d="M108.2,54.8c18.1,0,32.7,14.7,32.7,32.7c0,21.1-16.1,26.1-16.8,50.6c0,0.9-0.8,1.7-1.7,1.7H93.9
		c-0.9,0-1.7-0.7-1.7-1.7c-0.7-24.5-16.8-29.6-16.8-50.6C75.4,69.5,90.1,54.8,108.2,54.8L108.2,54.8z M97.5,156.4
		c7.1,0,14.2,0,21.3,0c0.3,0,0.6,0.1,0.8,0.4c0.2,0.2,0.3,0.5,0.3,0.9c-0.2,2.3-2.2,4.2-4.5,4.2c-4.8,0-9.7,0-14.5,0
		c-2.4,0-4.3-1.8-4.5-4.2c0-0.3,0.1-0.6,0.3-0.9C96.9,156.5,97.2,156.4,97.5,156.4L97.5,156.4z M95.7,149.2c8.3,0,16.7,0,25,0
		c0.3,0,0.6,0.1,0.8,0.4c0.2,0.2,0.3,0.5,0.3,0.9c-0.2,2.3-2.2,4.2-4.5,4.2c-6.1,0-12.1,0-18.2,0c-2.4,0-4.3-1.8-4.5-4.2
		c0-0.3,0.1-0.6,0.3-0.9C95.1,149.3,95.3,149.2,95.7,149.2L95.7,149.2z M93.8,142h28.6c0.3,0,0.6,0.1,0.8,0.4
		c0.2,0.2,0.3,0.5,0.3,0.9c-0.2,2.3-2.2,4.2-4.6,4.2H97.2c-2.4,0-4.3-1.8-4.5-4.2c0-0.3,0.1-0.6,0.3-0.9
		C93.2,142.1,93.5,142,93.8,142z"/>
</g>
</svg>
