<?xml version="1.0" encoding="utf-8"?>
<!-- Generator: Adobe Illustrator 18.1.1, SVG Export Plug-In . SVG Version: 6.00 Build 0)  -->
<svg version="1.1" id="Layer_1" xmlns="http://www.w3.org/2000/svg" xmlns:xlink="http://www.w3.org/1999/xlink" x="0px" y="0px"
	 viewBox="0 0 100 100" enable-background="new 0 0 100 100" xml:space="preserve">
<polygon fill="#FFDE00" points="16.1,81.5 9.8,74.6 30.1,-1.2 115.9,-0.3 115.9,64 "/>
<path fill="#FFFFFF" stroke="#231F20" stroke-width="0.9177" stroke-miterlimit="10" d="M1.5,98.8"/>
<rect y="98.8" fill="#FFFFFF" width="5.4" height="1.2"/>
<polygon fill="#FFFFFF" points="1.2,99 2,97.4 2.9,97.4 3.9,98.9 "/>
<path fill="#F2D970" d="M18.4,75.8c0-0.9-0.7-3.1-3.3-3.2c-1.5,0-2.9,0.9-3.1,2.2l4.3,4.3C17.6,78.8,18.4,77.2,18.4,75.8z"/>
<path opacity="0.5" enable-background="new    " d="M17.7,73.9c-0.3-0.4-3.9,2.8-3.9,2.8l2.4,2.4c0.3-0.1,1-0.5,1.4-1
	s0.7-1.4,0.7-1.9C18.4,75.1,18.1,74.4,17.7,73.9z"/>
<path fill="none" d="M13.4,74.6"/>
<g>
	<polygon fill="#FFFFFF" points="8.3,71.2 8.3,81.2 7.3,82.2 8.8,83.7 9.9,82.6 19.8,82.6 	"/>
</g>
<circle fill="#FFFFFF" cx="2.6" cy="88.5" r="0.8"/>
<polygon fill="#FFFFFF" points="2.8,88.1 8.1,82.7 7.7,82.6 1.9,88.4 "/>
<polygon fill="#FFFFFF" points="3.3,88.4 8.4,83.3 8.2,83 3.2,88 "/>
<polygon fill="#FFFFFF" points="2.4,97.4 2.4,89.2 2.1,89.2 2,97.4 "/>
<polygon fill="#FFFFFF" points="3,97.5 3,89.3 2.7,89.3 2.7,97.5 "/>
<path fill="#666666" stroke="#666666" stroke-width="2.25" stroke-miterlimit="10" d="M8.2,77.7"/>
</svg>
