<?xml version="1.0" encoding="utf-8"?>
<!-- Generator: Adobe Illustrator 18.1.1, SVG Export Plug-In . SVG Version: 6.00 Build 0)  -->
<svg version="1.1" id="Layer_1" xmlns="http://www.w3.org/2000/svg" xmlns:xlink="http://www.w3.org/1999/xlink" x="0px" y="0px"
	 viewBox="0 0 576 576" enable-background="new 0 0 576 576" xml:space="preserve">
<g>
	<g>
		<path fill="#FFFFFF" d="M410.2,204.1c0-24.8-23.7-44.9-53-44.9c0,0,0,0-0.1,0c-1.1-34.9-31-63-67.9-63
			c-36.3,0-65.9,27.2-67.8,61.3c-27.1,0.6-48.8,20.9-48.8,45.9c0,25.4,22.4,46,50,46c3.1,0,6-0.3,9-0.8h121.2
			c1.4,0.1,2.9,0.2,4.4,0.2c1.5,0,2.9-0.1,4.4-0.2h2.1v-0.2C389.9,246,410.2,227.1,410.2,204.1z"/>
	</g>
	<g>
		<g>
			<g>
				<g>
					<g>
						<g>
							<g>
								<g>
									<path fill="#ECF0F1" d="M136.7,377.3v-20.1c-8.2,0.5-15.1,8.9-16.9,20.1H136.7z"/>
								</g>
							</g>
						</g>
						<g>
							<g>
								<g>
									<path fill="#FFFFFF" d="M138.3,377.3h16.9c-1.8-11.2-8.6-19.6-16.9-20.1V377.3z"/>
								</g>
							</g>
						</g>
						<g>
							<g>
								<g>
									<path fill="#FFFFFF" d="M119.6,378.8c-0.2,1.4-0.3,2.9-0.3,4.3c0,14.4,8.1,26,18.1,26c10,0,18.1-11.6,18.1-26
										c0-1.5-0.1-2.9-0.3-4.3H119.6z"/>
								</g>
							</g>
						</g>
						<g>
							<g>
								<g>
									<path fill="#ECF0F1" d="M137.5,379.7c0-0.3,0-0.6,0.1-0.9h-17.9c-0.2,1.4-0.3,2.9-0.3,4.3c0,14.4,8.1,26,18.1,26l0,0V379.7
										z"/>
								</g>
							</g>
						</g>
					</g>
					<g>
						<g>
							<g>
								<path fill="#BDC3C7" d="M139.9,371.1c0,1.6-1.1,2.9-2.4,2.9l0,0c-1.3,0-2.4-1.3-2.4-2.9v-5c0-1.6,1.1-2.9,2.4-2.9l0,0
									c1.3,0,2.4,1.3,2.4,2.9V371.1z"/>
							</g>
						</g>
					</g>
				</g>
			</g>
		</g>
		<g>
			<g>
				<path fill="#EFEFEF" d="M137.6,358c-0.2,0-0.3,0-0.5-0.1c-0.6-0.3-0.8-0.9-0.6-1.5c0-0.1,1-2.3-0.2-4.1
					c-1.3-1.9-4.5-2.9-9.5-2.8l-49.3,0l-0.3-0.2c-0.2-0.1-5.4-3.4-5.3-7.8c0.1-2.6,1.9-4.9,5.3-6.8l0.3-0.1l0.3,0l125.1,1
					c1.3-1.1,3.8-3.7,3.5-6.1c-0.1-1.4-1.3-2.6-3.4-3.7h-68.5l-0.3-0.2c-0.2-0.2-5.7-4-5.3-8.6c0.2-2.4,2-4.5,5.4-6.2l1.1-22.8
					c0-0.6,0.6-1.1,1.2-1.1c0.6,0,1.1,0.6,1.1,1.2l-1.2,24.1l-0.6,0.3c-2.9,1.3-4.5,2.9-4.7,4.6c-0.2,2.5,2.6,5.2,4,6.3h68.3
					l0.2,0.1c3,1.4,4.7,3.3,4.9,5.6c0.5,4.3-4.5,8.2-4.7,8.4l-0.3,0.2l-125.6-1c-2.6,1.5-3.9,3.1-3.9,4.7c-0.1,2.4,2.6,4.7,4,5.7
					l48.6,0c5.8-0.1,9.7,1.2,11.4,3.8c1.9,2.9,0.4,6.2,0.4,6.3C138.4,357.8,138,358,137.6,358z"/>
			</g>
		</g>
		<g>
			<g>
				<g>
					<g>
						<g>
							<g>
								<g>
									<g>
										<g>
											<g>
												<g>
													<g>
														<rect x="63.2" y="204.6" fill="#D2D5D8" width="151.7" height="81.3"/>
													</g>
												</g>
											</g>
										</g>
									</g>
									<g>
										<g>
											<path fill="#D2D5D8" d="M223.5,285.8v-86.1c0-2.3-1.9-4.2-4.2-4.2H59c-2.3,0-4.2,1.9-4.2,4.2v86.1H223.5z"/>
										</g>
									</g>
									<g>
										<g>
											<g>
												<g>
													<g>
														<path d="M219.4,195.5H59c-2.3,0-4.2,1.9-4.2,4.2v86.1h168.7v-86.1C223.5,197.4,221.7,195.5,219.4,195.5z"/>
													</g>
												</g>
											</g>
										</g>
									</g>
									<g>
										<g>
											<g>
												<g>
													<g>
														<rect x="61.9" y="202.9" fill="#FFFFFF" width="154.3" height="82.9"/>
													</g>
												</g>
											</g>
										</g>
									</g>
									<g>
										<g>
											<g>
												<g>
													<g>
														<rect x="54.8" y="278.1" width="168.7" height="7.7"/>
													</g>
												</g>
											</g>
										</g>
									</g>
									<g>
										<g>
											<path fill="#28324E" d="M38.4,285.6H240c0,0-1.4,9.3-13.8,9.3H50.4C50.4,295,40.4,294.8,38.4,285.6z"/>
										</g>
									</g>
								</g>
							</g>
						</g>
					</g>
				</g>
			</g>
		</g>
	</g>
	<g>
		<g>
			<g>
				<g>
					<path fill="#F9D2B4" d="M272.9,372.1c0,0,3.7,9.2,13.3,9.5H309c0,0,6-1.1,12.3-9.5H272.9z"/>
				</g>
				<g>
					<rect x="285.9" y="376.8" fill="#F9D2B4" width="21.5" height="42"/>
				</g>
			</g>
			<g>
				<rect x="285.1" y="384.9" fill="#EFEFEF" width="23.4" height="33.9"/>
			</g>
			<g>
				<rect x="282.1" y="392.4" fill="#3CA5E0" width="28.4" height="86.8"/>
			</g>
			<g>
				<g>
					<path d="M333.3,370c0,2.4-1.9,4.3-4.3,4.3h-61.9c-2.4,0-4.3-1.9-4.3-4.3v-77c0-2.4,1.9-4.3,4.3-4.3H329c2.4,0,4.3,1.9,4.3,4.3
						V370z"/>
				</g>
				<g>
					<rect x="269.9" y="297.3" fill="#C3D1E0" width="56.2" height="68.3"/>
				</g>
				<g>
					<rect x="271.1" y="298.5" fill="#FFFFFF" width="55" height="67.2"/>
				</g>
				<g>
					<path fill="#202021" d="M303.2,370.5c0,0.9-0.7,1.5-1.5,1.5h-6.5c-0.9,0-1.5-0.7-1.5-1.5l0,0c0-0.9,0.7-1.5,1.5-1.5h6.5
						C302.5,369,303.2,369.7,303.2,370.5L303.2,370.5z"/>
				</g>
			</g>
			<g>
				<g>
					<path fill="#F0D0B4" d="M269.9,288.8c0,0,0.5-22.1,6.2-20c0,0,5.7-1,5.7,17.7v2.4H269.9z"/>
				</g>
				<g>
					<path fill="#F0D0B4" d="M280.8,278.7c0,0,6.2-5.1,9.4,0c0,0,4.2-5.3,8.8-1.1c0,0,6.2-5,8.8,1.1c0,0,6.2-4.6,8.8,0l6.2,10.1
						h-42.1V278.7"/>
				</g>
				<g>
					<path fill="#F0D0B4" d="M280.7,278.7c0,0-1.7,21.5,4.8,23.6c0,0,7.5,2.2,5.1-20c0,0,0.8,19.9,1.3,21.6c0,0,4.5,6.1,7.5-0.8
						c0,0,0.9-3.6,0.7-19.6c0,0,0.1,19.2,2.7,21.8c0,0,2.5,2.2,4.2-0.3c0,0,2.3-1.3,1.6-19.5l0.9,9.1l1.9,4.8c0,0,3.8,3.2,4.7-1.6
						l-0.8-10.7l-0.8-6.4L280.7,278.7z"/>
				</g>
				<g>
					<path fill="#ECC19C" d="M281.3,278.4c0,0-1.3,5.5-0.6,10"/>
				</g>
				<g>
					<path fill="#ECC19C" d="M290.2,279.7c0,0,0.1,0.8,0.3,2c0.1,1.2,0.3,2.8,0.4,4.4c0.1,1.6,0.2,3.2,0.2,4.4c0,1.2,0,2,0,2
						s-0.1-0.8-0.3-2c-0.1-1.2-0.3-2.8-0.4-4.4c-0.1-1.6-0.2-3.2-0.2-4.4C290.2,280.5,290.2,279.7,290.2,279.7z"/>
				</g>
				<g>
					<path fill="#ECC19C" d="M299.3,278.7c0,0,0.1,0.6,0.3,1.5c0.1,0.9,0.3,2.1,0.4,3.4c0.1,1.2,0.2,2.5,0.2,3.4c0,0.9,0,1.5,0,1.5
						s-0.1-0.6-0.3-1.5c-0.1-0.9-0.3-2.1-0.4-3.4c-0.1-1.2-0.2-2.5-0.2-3.4C299.3,279.3,299.3,278.7,299.3,278.7z"/>
				</g>
				<g>
					<path fill="#ECC19C" d="M307.9,279.2c0,0,0.1,0.5,0.3,1.4c0.1,0.8,0.3,1.9,0.5,3c0.1,1.1,0.2,2.2,0.3,3c0,0.4,0,0.8,0.1,1
						c0,0.2,0,0.4,0,0.4s0-0.1-0.1-0.4c-0.1-0.2-0.2-0.6-0.3-1c-0.2-0.8-0.4-1.9-0.5-3c-0.1-1.1-0.2-2.2-0.2-3.1
						C307.8,279.8,307.9,279.2,307.9,279.2z"/>
				</g>
				<g>
					<path fill="#ECC19C" d="M314.4,281.1c0,0,0.1,0.4,0.3,1.1c0.2,0.6,0.3,1.5,0.4,2.4c0.1,0.9,0.2,1.7,0.2,2.4c0,0.7,0,1.1,0,1.1
						s-0.1-0.4-0.3-1.1c-0.2-0.6-0.3-1.5-0.4-2.4c-0.1-0.9-0.2-1.7-0.2-2.4C314.3,281.6,314.4,281.1,314.4,281.1z"/>
				</g>
				<g opacity="0.7">
					<path fill="#E4B69D" d="M282.8,296.6h6.8C289.6,296.6,286.6,305.4,282.8,296.6z"/>
				</g>
				<g opacity="0.7">
					<path fill="#E4B69D" d="M292.5,300.9h5.7C298.3,300.9,296.2,310.2,292.5,300.9z"/>
				</g>
				<g opacity="0.7">
					<path fill="#E4B69D" d="M302.4,301.7h4.9C307.3,301.7,304.7,308.8,302.4,301.7z"/>
				</g>
				<g opacity="0.7">
					<path fill="#E4B69D" d="M311.5,297.8l3.8-1.1C315.3,296.6,314.8,302.5,311.5,297.8z"/>
				</g>
				<g>
					<path fill="#ECC19C" d="M282.2,289.1c0,0,0.4-0.1,1.1-0.1c0.7-0.1,1.5-0.1,2.4-0.1c0.9,0,1.7,0.1,2.4,0.1
						c0.7,0.1,1.1,0.2,1.1,0.2s-0.4,0.1-1.1,0.1c-0.7,0.1-1.5,0.1-2.4,0.1c-0.9,0-1.7-0.1-2.4-0.1
						C282.7,289.2,282.2,289.1,282.2,289.1z"/>
				</g>
				<g>
					<path fill="#ECC19C" d="M291.9,288.7c0,0,0.4-0.1,1.1-0.1c0.7-0.1,1.5-0.1,2.4-0.1c0.9,0,1.7,0.1,2.4,0.1
						c0.7,0.1,1.1,0.2,1.1,0.2s-0.4,0.1-1.1,0.1c-0.7,0.1-1.5,0.1-2.4,0.1c-0.9,0-1.7-0.1-2.4-0.1
						C292.3,288.8,291.9,288.7,291.9,288.7z"/>
				</g>
				<g>
					<path fill="#ECC19C" d="M302.3,288.7c0,0,0.3-0.1,0.8-0.1c0.5-0.1,1.1-0.1,1.7-0.1c0.6,0,1.3,0,1.7,0.1
						c0.5,0.1,0.8,0.1,0.8,0.1s-0.3,0.1-0.8,0.1c-0.5,0.1-1.1,0.1-1.7,0.1c-0.6,0-1.3-0.1-1.7-0.1
						C302.6,288.8,302.3,288.7,302.3,288.7z"/>
				</g>
				<g>
					<path fill="#ECC19C" d="M310,288.5c0,0,0.3-0.1,0.7-0.1c0.4-0.1,1-0.1,1.5-0.1c0.5,0,1.1,0.1,1.5,0.1c0.4,0.1,0.7,0.2,0.7,0.2
						s-0.3,0.1-0.7,0.1c-0.4,0.1-1,0.1-1.5,0.1c-0.5,0-1.1-0.1-1.5-0.1C310.3,288.6,310,288.5,310,288.5z"/>
				</g>
				<g>
					<path fill="#ECC19C" d="M282.7,288.4c0,0,0.4-0.1,0.9-0.1c0.5-0.1,1.3-0.1,2-0.1c0.7,0,1.4,0.1,2,0.1c0.5,0.1,0.9,0.2,0.9,0.2
						s-0.4,0.1-0.9,0.1c-0.5,0.1-1.3,0.1-2,0.1c-0.7,0-1.4-0.1-2-0.1C283.1,288.5,282.7,288.4,282.7,288.4z"/>
				</g>
				<g>
					<path fill="#ECC19C" d="M292.8,288.1c0,0,0.3-0.1,0.8-0.1c0.5-0.1,1.1-0.1,1.7-0.1c0.6,0,1.3,0.1,1.7,0.1
						c0.5,0.1,0.8,0.1,0.8,0.1s-0.3,0.1-0.8,0.1c-0.5,0.1-1.1,0.1-1.7,0.1c-0.6,0-1.3-0.1-1.7-0.1
						C293.1,288.1,292.8,288.1,292.8,288.1z"/>
				</g>
				<g>
					<path fill="#ECC19C" d="M302.3,287.7c0,0,0.3-0.1,0.8-0.1c0.5-0.1,1.1-0.1,1.7-0.1c0.6,0,1.3,0,1.7,0.1
						c0.5,0.1,0.8,0.1,0.8,0.1s-0.3,0.1-0.8,0.2c-0.5,0.1-1.1,0.1-1.7,0.1c-0.6,0-1.3,0-1.7-0.1
						C302.6,287.8,302.3,287.7,302.3,287.7z"/>
				</g>
				<g>
					<path fill="#ECC19C" d="M310,287.7c0,0,0.3-0.1,0.7-0.1c0.4-0.1,1-0.1,1.5-0.1c0.5,0,1.1,0.1,1.5,0.1c0.4,0.1,0.7,0.1,0.7,0.1
						s-0.3,0.1-0.7,0.1c-0.4,0.1-1,0.1-1.5,0.1c-0.5,0-1.1-0.1-1.5-0.1C310.3,287.8,310,287.7,310,287.7z"/>
				</g>
			</g>
		</g>
	</g>
	<g>
		<g>
			<g>
				<g>
					<g>
						<g>
							<rect x="430.6" y="311.9" fill="#3A3A3A" width="47" height="47"/>
						</g>
					</g>
				</g>
				<g>
					<g>
						<g>
							<polygon fill="#B1B1B2" points="477.6,326.2 454.1,326.2 430.6,326.2 427.1,357.2 454.1,357.2 481.1,357.2 							"/>
						</g>
					</g>
				</g>
				<g>
					<g>
						<g>
							<path fill="#D2D5D8" d="M537.9,326.1c0,2.3-1.9,4.2-4.2,4.2H372.8c-2.3,0-4.2-1.9-4.2-4.2V224c0-2.3,1.9-4.2,4.2-4.2h160.9
								c2.3,0,4.2,1.9,4.2,4.2V326.1z"/>
						</g>
					</g>
				</g>
				<g>
					<g>
						<g>
							<rect x="377" y="228.8" fill="#D2D5D8" width="152.3" height="81.5"/>
						</g>
					</g>
				</g>
				<g>
					<g>
						<g>
							<path d="M533.7,219.8H372.8c-2.3,0-4.2,1.9-4.2,4.2v86.4h169.3V224C537.9,221.6,536.1,219.8,533.7,219.8z"/>
						</g>
					</g>
				</g>
				<g>
					<g>
						<g>
							<path fill="#B6B6B7" d="M428,348.6l-1,8.5h27h27l-1-9.2C458.1,335.8,437.5,343.6,428,348.6z"/>
						</g>
					</g>
				</g>
				<g>
					<g>
						<g>
							<rect x="378.9" y="230.7" fill="#FFFFFF" width="150.3" height="79.6"/>
						</g>
					</g>
				</g>
				<g>
					<g>
						<g>
							<polygon fill="#C4C5C6" points="493.2,358.4 490.9,356.6 418.4,356.6 415,358.5 415,360.9 493.2,360.9 493.2,359.1 
								492.6,358.4 							"/>
						</g>
					</g>
				</g>
				<g>
					<g>
						<g>
							<rect x="415" y="358.4" fill="#D2D5D8" width="78.2" height="2.5"/>
						</g>
					</g>
				</g>
				<g>
					<g>
						<g>
							<rect x="368.6" y="301.1" width="169.3" height="9.3"/>
						</g>
					</g>
				</g>
			</g>
		</g>
	</g>
	<g opacity="0.3">
		<g>
			<path fill="#FFFFFF" d="M107.6,180.5c-0.5,0-1.1-0.2-1.5-0.6c-0.8-0.8-0.8-2.1,0.1-2.9c1.2-1.2,2.5-2.4,3.9-3.6
				c0.9-0.8,2.2-0.7,2.9,0.2c0.8,0.9,0.7,2.2-0.2,2.9c-1.3,1.2-2.6,2.3-3.8,3.5C108.6,180.3,108.1,180.5,107.6,180.5z M117.8,171.6
				c-0.6,0-1.2-0.3-1.6-0.8c-0.7-0.9-0.6-2.2,0.3-2.9c1.3-1.1,2.7-2.2,4.1-3.3c0.9-0.7,2.2-0.5,2.9,0.4c0.7,0.9,0.5,2.2-0.4,2.9
				c-1.4,1-2.7,2.1-4,3.2C118.7,171.4,118.2,171.6,117.8,171.6z M128.6,163.5c-0.7,0-1.3-0.3-1.7-0.9c-0.7-0.9-0.4-2.2,0.5-2.9
				c1.4-1,2.9-2,4.4-2.9c1-0.6,2.3-0.4,2.9,0.6c0.6,1,0.4,2.2-0.6,2.9c-1.4,0.9-2.9,1.9-4.3,2.9C129.4,163.3,129,163.5,128.6,163.5z
				 M140,156.2c-0.7,0-1.4-0.4-1.8-1c-0.6-1-0.2-2.3,0.7-2.8c1.5-0.9,3.1-1.8,4.6-2.6c1-0.6,2.3-0.2,2.8,0.8c0.6,1,0.2,2.3-0.8,2.8
				c-1.5,0.8-3,1.7-4.5,2.5C140.7,156.1,140.3,156.2,140,156.2z M151.9,149.8c-0.8,0-1.5-0.4-1.9-1.2c-0.5-1-0.1-2.3,1-2.8
				c1.6-0.8,3.2-1.5,4.8-2.2c1-0.5,2.3,0,2.7,1.1c0.5,1.1,0,2.3-1.1,2.7c-1.5,0.7-3.1,1.4-4.7,2.2
				C152.5,149.8,152.2,149.8,151.9,149.8z M164.3,144.5c-0.8,0-1.6-0.5-1.9-1.3c-0.4-1.1,0.1-2.3,1.2-2.7c1.6-0.6,3.3-1.2,5-1.8
				c1.1-0.4,2.3,0.2,2.6,1.3c0.4,1.1-0.2,2.3-1.3,2.6c-1.6,0.5-3.2,1.1-4.8,1.7C164.8,144.5,164.5,144.5,164.3,144.5z M177.1,140.2
				c-0.9,0-1.7-0.6-2-1.5c-0.3-1.1,0.3-2.3,1.4-2.6c1.7-0.5,3.4-0.9,5.1-1.3c1.1-0.3,2.2,0.4,2.5,1.5c0.3,1.1-0.4,2.2-1.5,2.5
				c-1.7,0.4-3.3,0.8-5,1.3C177.5,140.2,177.3,140.2,177.1,140.2z M190.3,137.2c-1,0-1.9-0.7-2-1.7c-0.2-1.1,0.5-2.2,1.7-2.4
				c1.7-0.3,3.5-0.6,5.2-0.8c1.1-0.2,2.2,0.6,2.4,1.8c0.2,1.1-0.6,2.2-1.8,2.4c-1.7,0.2-3.4,0.5-5.1,0.8
				C190.5,137.2,190.4,137.2,190.3,137.2z"/>
		</g>
		<g>
			<g>
				<circle fill="#FFFFFF" cx="107.9" cy="178.2" r="7.6"/>
			</g>
		</g>
		<g>
			<g>
				<polygon fill="#FFFFFF" points="213.9,132.9 193.9,142.7 198.2,134 192.7,125.9 				"/>
			</g>
		</g>
	</g>
	<g opacity="0.3">
		<g>
			<path fill="#FFFFFF" d="M468.7,203c-0.6,0-1.3-0.3-1.7-0.8c-1-1.3-2.1-2.7-3.2-4c-0.7-0.9-0.6-2.2,0.3-2.9
				c0.9-0.7,2.2-0.6,2.9,0.3c1.1,1.4,2.2,2.8,3.3,4.2c0.7,0.9,0.5,2.2-0.4,2.9C469.6,202.9,469.2,203,468.7,203z M460.1,192.6
				c-0.6,0-1.1-0.2-1.6-0.7c-1.1-1.3-2.3-2.5-3.5-3.8c-0.8-0.8-0.8-2.1,0.1-2.9c0.8-0.8,2.1-0.8,2.9,0.1c1.2,1.3,2.4,2.6,3.6,3.9
				c0.8,0.9,0.7,2.2-0.2,2.9C461.1,192.4,460.6,192.6,460.1,192.6z M450.7,182.9c-0.5,0-1-0.2-1.4-0.6c-1.2-1.2-2.5-2.4-3.8-3.5
				c-0.9-0.8-0.9-2.1-0.1-2.9c0.8-0.8,2.1-0.9,2.9-0.1c1.3,1.2,2.6,2.4,3.8,3.6c0.8,0.8,0.9,2.1,0.1,2.9
				C451.8,182.7,451.3,182.9,450.7,182.9z M440.6,173.9c-0.5,0-0.9-0.2-1.3-0.5c-1.3-1.1-2.7-2.2-4-3.2c-0.9-0.7-1.1-2-0.4-2.9
				c0.7-0.9,2-1.1,2.9-0.4c1.4,1.1,2.8,2.2,4.1,3.3c0.9,0.7,1,2,0.3,2.9C441.8,173.6,441.2,173.9,440.6,173.9z M429.9,165.7
				c-0.4,0-0.8-0.1-1.2-0.4c-1.4-1-2.8-1.9-4.3-2.9c-1-0.6-1.2-1.9-0.6-2.9c0.6-1,1.9-1.2,2.9-0.6c1.5,0.9,2.9,1.9,4.4,2.9
				c0.9,0.7,1.2,2,0.5,2.9C431.2,165.4,430.5,165.7,429.9,165.7z M418.5,158.4c-0.4,0-0.7-0.1-1-0.3c-1.5-0.9-3-1.7-4.5-2.5
				c-1-0.5-1.4-1.8-0.9-2.8c0.5-1,1.8-1.4,2.8-0.9c1.5,0.8,3.1,1.7,4.6,2.6c1,0.6,1.3,1.8,0.8,2.8
				C419.9,158.1,419.2,158.4,418.5,158.4z M406.5,152.2c-0.3,0-0.6-0.1-0.9-0.2c-1.5-0.7-3.1-1.4-4.7-2.1c-1.1-0.4-1.6-1.7-1.1-2.7
				c0.4-1.1,1.7-1.6,2.7-1.1c1.6,0.7,3.2,1.4,4.8,2.1c1,0.5,1.5,1.7,1,2.8C408.1,151.7,407.3,152.2,406.5,152.2z M394,147.1
				c-0.2,0-0.5,0-0.7-0.1c-1.6-0.6-3.2-1.1-4.9-1.6c-1.1-0.3-1.7-1.5-1.4-2.6c0.3-1.1,1.5-1.7,2.6-1.4c1.7,0.5,3.4,1.1,5,1.7
				c1.1,0.4,1.6,1.6,1.3,2.7C395.7,146.5,394.9,147.1,394,147.1z"/>
		</g>
		<g>
			<g>
				<circle fill="#FFFFFF" cx="468.4" cy="200.7" r="7.6"/>
			</g>
		</g>
		<g>
			<g>
				<polygon fill="#FFFFFF" points="371.1,139.1 389.3,151.9 386.4,142.6 393.1,135.5 				"/>
			</g>
		</g>
	</g>
</g>
<g>
	<path fill="none" stroke="#FF7800" stroke-width="0.648" stroke-miterlimit="10" d="M297.2,310.9c7.8,0,14.1,6.3,14.1,14.1
		c0,9.1-7,11.3-7.3,21.9c0,0.4-0.3,0.7-0.7,0.7h-12.3c-0.4,0-0.7-0.3-0.7-0.7c-0.3-10.6-7.3-12.8-7.3-21.9
		C283.1,317.2,289.4,310.9,297.2,310.9L297.2,310.9z M292.6,354.8c3.1,0,6.1,0,9.2,0c0.1,0,0.3,0.1,0.4,0.2c0.1,0.1,0.1,0.2,0.1,0.4
		c-0.1,1-0.9,1.8-2,1.8c-2.1,0-4.2,0-6.3,0c-1,0-1.9-0.8-2-1.8c0-0.1,0-0.3,0.1-0.4C292.4,354.8,292.5,354.8,292.6,354.8
		L292.6,354.8z M291.8,351.6c3.6,0,7.2,0,10.8,0c0.1,0,0.3,0.1,0.4,0.2c0.1,0.1,0.1,0.2,0.1,0.4c-0.1,1-0.9,1.8-2,1.8
		c-2.6,0-5.2,0-7.8,0c-1,0-1.9-0.8-2-1.8c0-0.1,0-0.3,0.1-0.4C291.6,351.7,291.7,351.6,291.8,351.6L291.8,351.6z M291,348.5h12.4
		c0.1,0,0.3,0.1,0.4,0.2c0.1,0.1,0.1,0.2,0.1,0.4c-0.1,1-0.9,1.8-2,1.8h-9.4c-1,0-1.9-0.8-2-1.8c0-0.1,0-0.3,0.1-0.4
		C290.8,348.6,290.9,348.5,291,348.5z"/>
	<path fill="#FF7800" d="M292.6,354.8c3.1,0,6.1,0,9.2,0c0.1,0,0.3,0.1,0.4,0.2c0.1,0.1,0.1,0.2,0.1,0.4c-0.1,1-0.9,1.8-2,1.8
		c-2.1,0-4.2,0-6.3,0c-1,0-1.9-0.8-2-1.8c0-0.1,0-0.3,0.1-0.4C292.4,354.8,292.5,354.8,292.6,354.8L292.6,354.8z M291.8,351.6
		c3.6,0,7.2,0,10.8,0c0.1,0,0.3,0.1,0.4,0.2c0.1,0.1,0.1,0.2,0.1,0.4c-0.1,1-0.9,1.8-2,1.8c-2.6,0-5.2,0-7.8,0c-1,0-1.9-0.8-2-1.8
		c0-0.1,0-0.3,0.1-0.4C291.6,351.7,291.7,351.6,291.8,351.6L291.8,351.6z M291,348.5h12.4c0.1,0,0.3,0.1,0.4,0.2
		c0.1,0.1,0.1,0.2,0.1,0.4c-0.1,1-0.9,1.8-2,1.8h-9.4c-1,0-1.9-0.8-2-1.8c0-0.1,0-0.3,0.1-0.4C290.8,348.6,290.9,348.5,291,348.5z"
		/>
</g>
<rect x="170" y="229.4" fill="none" stroke="#FF7800" stroke-width="0.8546" width="27.3" height="16"/>
<rect x="77.8" y="229.4" fill="none" stroke="#FF7800" stroke-width="0.8546" width="92.3" height="16"/>
<text transform="matrix(1 0 0 1 76.7319 251.3203)" fill="#FF7800" font-family="'Univers-Extended'" font-size="5.0404">R</text>
<text transform="matrix(1 0 0 1 81.7675 251.3203)" fill="#FF7800" font-family="'Univers-Extended'" font-size="5.0404">E</text>
<text transform="matrix(1 0 0 1 86.3237 251.3203)" fill="#FF7800" font-family="'Univers-Extended'" font-size="5.0404">S</text>
<text transform="matrix(1 0 0 1 91.3892 251.3203)" fill="#FF7800" font-family="'Univers-Extended'" font-size="5.0404">T</text>
<text transform="matrix(1 0 0 1 95.6132 251.3203)" fill="#FF7800" font-family="'Univers-Extended'" font-size="5.0404">A</text>
<text transform="matrix(1 0 0 1 100.8506 251.3203)" fill="#FF7800" font-family="'Univers-Extended'" font-size="5.0404">U</text>
<text transform="matrix(1 0 0 1 106.2788 251.3203)" fill="#FF7800" font-family="'Univers-Extended'" font-size="5.0404">R</text>
<text transform="matrix(1 0 0 1 111.4414 251.3203)" fill="#FF7800" font-family="'Univers-Extended'" font-size="5.0404">AN</text>
<text transform="matrix(1 0 0 1 122.3877 251.3203)" fill="#FF7800" font-family="'Univers-Extended'" font-size="5.0404">T</text>
<text transform="matrix(1 0 0 1 126.8642 251.3203)" fill="#FF7800" font-family="'Univers-Extended'" font-size="5.0404"> </text>
<text transform="matrix(1 0 0 1 129.4706 251.3203)" fill="#FF7800" font-family="'Univers-Extended'" font-size="5.0404">P</text>
<text transform="matrix(1 0 0 1 134.123 251.3203)" fill="#FF7800" font-family="'Univers-Extended'" font-size="5.0404">A</text>
<text transform="matrix(1 0 0 1 139.0112 251.3203)" fill="#FF7800" font-family="'Univers-Extended'" font-size="5.0404">Y</text>
<text transform="matrix(1 0 0 1 144.1181 251.3203)" fill="#FF7800" font-family="'Univers-Extended'" font-size="5.0404">R</text>
<text transform="matrix(1 0 0 1 149.1069 251.3203)" fill="#FF7800" font-family="'Univers-Extended'" font-size="5.0404">O</text>
<text transform="matrix(1 0 0 1 154.8486 251.3203)" fill="#FF7800" font-family="'Univers-Extended'" font-size="5.0404">L</text>
<text transform="matrix(1 0 0 1 159.123 251.3203)" fill="#FF7800" font-family="'Univers-Extended'" font-size="5.0404">L </text>
<text transform="matrix(1 0 0 1 165.8408 251.3203)" fill="#FF7800" font-family="'Univers-Extended'" font-size="5.0404">E</text>
<text transform="matrix(1 0 0 1 170.6103 251.3203)" fill="#FF7800" font-family="'Univers-Extended'" font-size="5.0404">X</text>
<text transform="matrix(1 0 0 1 175.6597 251.3203)" fill="#FF7800" font-family="'Univers-Extended'" font-size="5.0404">P</text>
<text transform="matrix(1 0 0 1 180.6054 251.3203)" fill="#FF7800" font-family="'Univers-Extended'" font-size="5.0404">E</text>
<text transform="matrix(1 0 0 1 185.207 251.3203)" fill="#FF7800" font-family="'Univers-Extended'" font-size="5.0404">R</text>
<text transform="matrix(1 0 0 1 190.2925 251.3203)" fill="#FF7800" font-family="'Univers-Extended'" font-size="5.0404">T</text>
<text transform="matrix(1 0 0 1 194.9907 251.3203)" fill="#FF7800" font-family="'Univers-Extended'" font-size="5.0404">S</text>
<text transform="matrix(1 0 0 1 78.4229 242.1484)" fill="#FF7800" font-family="'Univers-Bold'" font-size="16.2529">P</text>
<text transform="matrix(1 0 0 1 87.1665 242.1484)" fill="#FF7800" font-family="'Univers-Bold'" font-size="16.2529" letter-spacing="-1">A</text>
<text transform="matrix(1 0 0 1 97.1299 242.1484)" fill="#FF7800" font-family="'Univers-Bold'" font-size="16.2529">YMASTERS INC</text>
<g>
	<rect x="430.1" y="231.3" fill="#FF7800" width="49.6" height="64"/>
	<path fill="#FF5000" d="M446.7,238.9"/>
	<g>
		<path fill="#FF7800" d="M431.5,298.7c-0.1,0-0.1,0-0.2,0.1l-0.3,0.5c-0.1,0.1-0.1,0.2-0.1,0.2c0,0,0.1,0.1,0.2,0.1l0.2,0
			c0,0,0,0.1,0,0.2c-0.2,0-0.4,0-0.6,0c-0.2,0-0.3,0-0.4,0c-0.1,0-0.1-0.1,0-0.2l0.1,0c0.2,0,0.3-0.1,0.5-0.4
			c0.4-0.6,0.8-1.2,1.2-1.8c0.1-0.2,0.3-0.4,0.3-0.5c0.3,0,0.5-0.2,0.5-0.2h0c0,0,0.1,0,0.1,0.1c0,0.8,0,1.6,0,2.4
			c0,0.3,0,0.4,0.2,0.4l0.1,0c0,0,0,0.1,0,0.2c-0.2,0-0.4,0-0.6,0c-0.3,0-0.5,0-0.6,0c-0.1,0-0.1-0.1,0-0.2l0.1,0
			c0.2,0,0.2-0.1,0.2-0.2l0-0.6c0-0.1,0-0.1-0.1-0.1H431.5z M432.1,298.5c0.1,0,0.1,0,0.1-0.1l0-0.6c0-0.1,0-0.4,0-0.5h0
			c-0.1,0.1-0.2,0.3-0.3,0.5l-0.4,0.6c-0.1,0.1,0,0.1,0.1,0.1H432.1z"/>
		<path fill="#FF7800" d="M436.1,297.4c0.1-0.4,0.1-0.5-0.1-0.5l-0.1,0c0,0,0-0.1,0-0.2c0.2,0,0.4,0,0.6,0c0.1,0,0.3,0,0.4,0
			c0,0.2,0.1,0.5,0.4,1l0.2,0.5c0.2,0.4,0.2,0.5,0.3,0.6c0-0.1,0.1-0.2,0.1-0.3l0.2-0.7c0.1-0.3,0.2-0.6,0.2-0.7
			c0-0.2,0-0.3-0.2-0.3l-0.1,0c0,0,0-0.1,0-0.2c0.2,0,0.4,0,0.6,0c0.2,0,0.3,0,0.5,0c0,0,0,0.1,0,0.2l-0.1,0c-0.2,0-0.3,0.1-0.4,0.3
			c0,0.1-0.1,0.4-0.2,0.7L438,299c-0.1,0.3-0.2,0.6-0.2,0.8c0,0-0.2,0-0.3,0c0,0-0.1-0.4-0.3-0.6l-0.5-1.1c-0.1-0.2-0.2-0.6-0.3-0.7
			c0,0.1,0,0.1-0.1,0.4l-0.3,0.9c-0.1,0.3-0.2,0.6-0.2,0.7c0,0.2,0,0.3,0.2,0.3l0.1,0c0,0,0,0.1,0,0.2c-0.2,0-0.4,0-0.6,0
			c-0.2,0-0.3,0-0.5,0c0,0,0-0.1,0-0.2l0.1,0c0.2,0,0.3-0.1,0.4-0.3c0-0.1,0.1-0.4,0.2-0.7L436.1,297.4z"/>
		<path fill="#FF7800" d="M441.3,297.4c0.1-0.4,0.1-0.5-0.1-0.5l-0.1,0c0,0,0-0.1,0-0.2c0.2,0,0.4,0,0.6,0c0.1,0,0.3,0,0.4,0
			c0,0.2,0.1,0.5,0.4,1l0.2,0.5c0.2,0.4,0.2,0.5,0.3,0.6c0-0.1,0.1-0.2,0.1-0.3l0.2-0.7c0.1-0.3,0.2-0.6,0.2-0.7
			c0-0.2,0-0.3-0.2-0.3l-0.1,0c0,0,0-0.1,0-0.2c0.2,0,0.4,0,0.6,0c0.2,0,0.3,0,0.5,0c0,0,0,0.1,0,0.2l-0.1,0c-0.2,0-0.3,0.1-0.4,0.3
			c0,0.1-0.1,0.4-0.2,0.7l-0.3,1.1c-0.1,0.3-0.2,0.6-0.2,0.8c0,0-0.2,0-0.3,0c0,0-0.1-0.4-0.3-0.6l-0.5-1.1
			c-0.1-0.2-0.2-0.6-0.3-0.7c0,0.1,0,0.1-0.1,0.4l-0.3,0.9c-0.1,0.3-0.2,0.6-0.2,0.7c0,0.2,0,0.3,0.2,0.3l0.1,0c0,0,0,0.1,0,0.2
			c-0.2,0-0.4,0-0.6,0c-0.2,0-0.3,0-0.5,0c0,0,0-0.1,0-0.2l0.1,0c0.2,0,0.3-0.1,0.4-0.3c0-0.1,0.1-0.4,0.2-0.7L441.3,297.4z"/>
		<path fill="#FF7800" d="M446.8,299.6c0,0,0,0.1,0,0.2c-0.2,0-0.5,0-0.7,0c-0.2,0-0.4,0-0.7,0c0,0,0-0.1,0-0.2l0.1,0
			c0.2,0,0.2-0.1,0.4-0.5l0.5-1.7c0.1-0.4,0.1-0.4-0.1-0.5l-0.1,0c0,0,0-0.1,0-0.2c0.3,0,0.5,0,0.7,0c0.2,0,0.4,0,0.6,0
			c0,0,0,0.1,0,0.2l-0.1,0c-0.2,0-0.2,0.1-0.4,0.5l-0.5,1.7c-0.1,0.4-0.1,0.4,0.1,0.5L446.8,299.6z"/>
		<path fill="#FF7800" d="M450.6,296.9c-0.1,0-0.1,0.1-0.1,0.1c0,0,0,0.2,0,0.5l0.1,0.9c0,0.1,0,0.4,0,0.5c0-0.1,0.2-0.2,0.3-0.4
			c0.3-0.4,0.6-0.9,0.9-1.3c0.1-0.1,0.1-0.1,0.1-0.2c0,0,0-0.1-0.1-0.1l-0.2,0c0,0,0-0.1,0-0.2c0.3,0,0.5,0,0.6,0c0.2,0,0.3,0,0.5,0
			c0,0,0,0.1,0,0.2l-0.1,0c-0.2,0-0.2,0.1-0.3,0.1c-0.1,0.1-0.3,0.4-0.6,0.8l-0.6,0.8c-0.4,0.6-0.6,0.9-0.8,1.2c0,0-0.1,0-0.2,0
			c-0.1,0-0.1,0-0.1,0c0-0.1,0-0.4,0-0.7l-0.1-1.6c0-0.4-0.1-0.5-0.2-0.5l-0.1,0c0,0,0-0.1,0-0.2c0.2,0,0.4,0,0.6,0
			c0.2,0,0.4,0,0.6,0c0,0,0,0.1,0,0.2L450.6,296.9z"/>
		<path fill="#FF7800" d="M456.3,296.7c0.3,0,0.6,0,0.6,0c0,0.1-0.2,0.4-0.2,0.7c0,0.1-0.1,0.1-0.2,0c0-0.2,0-0.3,0-0.4
			c0-0.1-0.2-0.2-0.4-0.2h-0.4c-0.2,0-0.2,0-0.2,0.2l-0.3,0.8c0,0.1,0,0.1,0.1,0.1h0.3c0.2,0,0.3,0,0.4-0.3l0.1-0.1c0,0,0.2,0,0.2,0
			c-0.1,0.1-0.1,0.3-0.2,0.5c-0.1,0.2-0.1,0.3-0.1,0.5c0,0-0.2,0-0.2,0l0-0.1c0-0.2,0-0.3-0.3-0.3h-0.3c-0.1,0-0.1,0-0.2,0.1
			l-0.2,0.6c-0.1,0.2-0.1,0.4-0.1,0.4c0,0.1,0.1,0.1,0.5,0.1c0.4,0,0.6,0,0.9-0.5c0.1,0,0.2,0,0.2,0c-0.1,0.2-0.3,0.6-0.4,0.7
			c-0.3,0-0.6,0-1.1,0h-0.6c-0.2,0-0.4,0-0.7,0c0,0,0-0.1,0-0.2l0.2,0c0.2,0,0.3-0.1,0.4-0.5l0.5-1.7c0.1-0.4,0.1-0.5-0.1-0.5
			l-0.1,0c0,0,0-0.1,0-0.2c0.2,0,0.5,0,0.6,0H456.3z"/>
		<path fill="#FF7800" d="M459.4,297.4c0.1-0.3,0.1-0.4,0-0.4l-0.1,0c0,0,0-0.1,0-0.2c0.3,0,0.6,0,0.9,0c0.4,0,0.7,0,0.9,0.1
			c0.2,0.1,0.4,0.3,0.4,0.6c0,0.5-0.4,0.7-0.7,0.8c-0.1,0-0.1,0-0.1,0.1c0.1,0.6,0.2,1,0.3,1.1c0.1,0.1,0.2,0.1,0.3,0.1
			c0,0,0,0.1,0,0.1c-0.1,0-0.2,0-0.4,0c-0.2,0-0.3,0-0.4-0.1c-0.1-0.1-0.2-0.2-0.2-0.4l-0.1-0.7c0-0.2-0.1-0.2-0.2-0.2
			c-0.1,0-0.1,0-0.2,0.1l-0.2,0.6c-0.1,0.4-0.1,0.4,0.1,0.5l0.1,0c0,0,0,0.1,0,0.2c-0.2,0-0.5,0-0.7,0c-0.2,0-0.4,0-0.7,0
			c0,0-0.1-0.1,0-0.2l0.1,0c0.2,0,0.2-0.1,0.4-0.5L459.4,297.4z M460.3,296.9c-0.2,0-0.2,0-0.2,0.2l-0.3,1c0,0.1,0,0.1,0.2,0.1
			c0.4,0,0.8-0.4,0.8-0.8C460.8,297.2,460.7,296.9,460.3,296.9z"/>
		<path fill="#FF7800" d="M463.2,299.4c0-0.2,0-0.5,0.1-0.7c0,0,0.1,0,0.2,0c0,0.1,0,0.3,0.1,0.5c0.1,0.2,0.3,0.4,0.6,0.4
			c0.3,0,0.5-0.2,0.5-0.6c0-0.2-0.1-0.4-0.4-0.6l-0.1-0.1c-0.3-0.2-0.5-0.5-0.5-0.8c0-0.6,0.5-1,1.1-1c0.3,0,0.6,0.1,0.8,0.2
			c-0.1,0.1-0.1,0.3-0.2,0.6c0,0.1-0.2,0-0.2,0c0.1-0.3-0.1-0.6-0.5-0.6c-0.3,0-0.6,0.3-0.6,0.5c0,0.1,0.1,0.3,0.4,0.5l0.1,0.1
			c0.3,0.2,0.5,0.4,0.5,0.9c0,0.6-0.4,1-1.2,1C463.7,299.8,463.3,299.6,463.2,299.4z"/>
		<path fill="#FF7800" d="M468.3,298.7c-0.1,0-0.1,0-0.2,0.1l-0.3,0.5c-0.1,0.1-0.1,0.2-0.1,0.2c0,0,0.1,0.1,0.2,0.1l0.2,0
			c0,0,0,0.1,0,0.2c-0.2,0-0.4,0-0.6,0c-0.2,0-0.3,0-0.4,0c-0.1,0-0.1-0.1,0-0.2l0.1,0c0.2,0,0.3-0.1,0.5-0.4
			c0.4-0.6,0.8-1.2,1.2-1.8c0.1-0.2,0.3-0.4,0.3-0.5c0.3,0,0.5-0.2,0.5-0.2h0c0,0,0.1,0,0.1,0.1c0,0.8,0,1.6,0,2.4
			c0,0.3,0,0.4,0.2,0.4l0.1,0c0,0,0,0.1,0,0.2c-0.2,0-0.4,0-0.6,0c-0.3,0-0.5,0-0.6,0c-0.1,0,0-0.1,0-0.2l0.1,0
			c0.2,0,0.2-0.1,0.2-0.2l0-0.6c0-0.1,0-0.1-0.1-0.1H468.3z M468.9,298.5c0.1,0,0.1,0,0.1-0.1l0-0.6c0-0.1,0-0.4,0-0.5h0
			c-0.1,0.1-0.2,0.3-0.3,0.5l-0.4,0.6c-0.1,0.1,0,0.1,0.1,0.1H468.9z"/>
		<path fill="#FF7800" d="M473,297.4c0.1-0.3,0.1-0.4,0-0.4l-0.1,0c0,0,0-0.1,0-0.2c0.3,0,0.6,0,0.9,0c0.4,0,0.7,0,0.9,0.1
			c0.2,0.1,0.4,0.3,0.4,0.6c0,0.5-0.4,0.7-0.7,0.8c-0.1,0-0.1,0-0.1,0.1c0.1,0.6,0.2,1,0.3,1.1c0.1,0.1,0.2,0.1,0.3,0.1
			c0,0,0,0.1,0,0.1c-0.1,0-0.2,0-0.4,0c-0.2,0-0.3,0-0.4-0.1c-0.1-0.1-0.2-0.2-0.2-0.4l-0.1-0.7c0-0.2-0.1-0.2-0.2-0.2
			c-0.1,0-0.1,0-0.2,0.1l-0.2,0.6c-0.1,0.4-0.1,0.4,0.1,0.5l0.1,0c0,0,0,0.1,0,0.2c-0.2,0-0.5,0-0.7,0c-0.2,0-0.4,0-0.7,0
			c0,0,0-0.1,0-0.2l0.1,0c0.2,0,0.2-0.1,0.4-0.5L473,297.4z M473.9,296.9c-0.2,0-0.2,0-0.2,0.2l-0.3,1c0,0.1,0,0.1,0.2,0.1
			c0.4,0,0.8-0.4,0.8-0.8C474.3,297.2,474.2,296.9,473.9,296.9z"/>
		<path fill="#FF7800" d="M478.4,299.6c0,0,0,0.1,0,0.2c-0.3,0-0.5,0-0.7,0c-0.2,0-0.4,0-0.7,0c0,0,0-0.1,0-0.2l0.2,0
			c0.2,0,0.2-0.1,0.4-0.5l0.1-0.2c0.1-0.2,0.1-0.4,0-0.6c-0.1-0.3-0.1-0.7-0.2-1c0-0.3-0.1-0.4-0.3-0.4l-0.1,0c0,0,0-0.1,0-0.2
			c0.2,0,0.4,0,0.6,0c0.2,0,0.4,0,0.6,0c0.1,0,0,0.1,0,0.2l-0.2,0c-0.1,0-0.1,0.1-0.1,0.1c0,0,0,0.1,0,0.3c0,0.3,0.1,0.8,0.2,1
			l0.6-0.8c0.2-0.2,0.3-0.4,0.3-0.5c0,0,0-0.1-0.1-0.1l-0.2,0c0,0,0-0.1,0-0.2c0.3,0,0.4,0,0.6,0c0.2,0,0.3,0,0.4,0c0,0,0,0.1,0,0.2
			l-0.1,0c-0.2,0-0.2,0.1-0.4,0.3c-0.3,0.3-0.6,0.7-0.9,1c-0.2,0.3-0.3,0.4-0.3,0.6l-0.1,0.3c-0.1,0.4-0.1,0.5,0.1,0.5L478.4,299.6z
			"/>
	</g>
	<g>
		<path fill="#FFFFFF" d="M442.5,285.1c-2.1,6.9-1.3,7.8,3.1,8.3l2.3,0.3c0.5,0.4,0.5,1.8-0.1,2.2c-4.4-0.2-7.6-0.3-11.2-0.3
			c-3.2,0-6.7,0.1-10.6,0.3c-0.7-0.4-0.7-1.9,0-2.2l2.2-0.3c5.5-0.7,6.3-2.1,8.3-8.9l8.7-29.3c2-6.8,1.7-8-1.6-8.3l-4-0.4
			c-0.5-0.4-0.3-1.5,0.2-1.7c7.7-1.3,12.3-3,15.5-4.7c0.6-0.1,1,0.1,1.1,0.4c-1.1,3-2.6,7-3.6,10.5L442.5,285.1z"/>
	</g>
	<g>
		<path fill="#FFFFFF" d="M431.1,237.8v-4.6h1.4c1,0,1.9,0.2,1.9,1.4c0,0.8-0.6,1.4-1.6,1.4H432v1.8H431.1z M432,235.3
			c0.5,0,1.3,0.2,1.3-0.6c0-0.8-0.7-0.6-1.3-0.6V235.3z"/>
		<path fill="#FFFFFF" d="M434.8,237.8l1.7-4.6h1.2l1.6,4.6h-1l-0.3-1h-1.8l-0.3,1H434.8z M437.6,236.1l-0.6-2h0l-0.7,2H437.6z"/>
		<path fill="#FFFFFF" d="M440.9,236.3l-1.5-3.1h1.2l0.9,2.1l1-2.1h1l-1.5,3.1v1.5h-1V236.3z"/>
		<path fill="#FFFFFF" d="M447.5,237.8h-0.8l-1.2-3.9l0,0v3.9h-0.9v-4.6h1.6l1,3.3h0l1-3.3h1.6v4.6h-0.9v-3.9l0,0L447.5,237.8z"/>
		<path fill="#FFFFFF" d="M450.8,237.8l1.7-4.6h1.2l1.6,4.6h-1l-0.3-1h-1.8l-0.3,1H450.8z M453.7,236.1l-0.6-2h0l-0.7,2H453.7z"/>
		<path fill="#FFFFFF" d="M458.9,234.5c0-0.5-0.3-0.7-0.8-0.7c-0.4,0-0.7,0.2-0.7,0.6c0,0.5,0.4,0.6,0.8,0.6
			c0.7,0.2,1.7,0.4,1.7,1.3c0,1.1-1,1.5-2,1.5c-1.1,0-1.8-0.4-1.8-1.6h1c0,0.5,0.3,0.9,0.8,0.9c0.4,0,0.9-0.1,0.9-0.6
			c0-0.5-0.7-0.6-1-0.7c-0.6-0.2-1.5-0.5-1.5-1.3c0-1,1-1.5,1.9-1.5c0.9,0,1.6,0.5,1.6,1.4H458.9z"/>
		<path fill="#FFFFFF" d="M460.9,233.2h3.7v0.8h-1.4v3.8h-1V234h-1.4V233.2z"/>
		<path fill="#FFFFFF" d="M465.7,233.2h3.1v0.8h-2.1v1.1h2v0.8h-2v1.2h2.2v0.8h-3.1V233.2z"/>
		<path fill="#FFFFFF" d="M471.3,237.8h-1v-4.6h2c0.8,0,1.6,0.3,1.6,1.2c0,0.6-0.4,1-1,1.1v0c0.8,0.1,0.8,0.5,0.8,1.2
			c0,0.3,0.1,0.8,0.3,1.1h-1.1c-0.1-0.4-0.1-0.8-0.2-1.2c0-0.3-0.1-0.6-0.4-0.6h-1V237.8z M471.3,235.2h0.8c0.4,0,0.7-0.2,0.7-0.6
			c0-0.4-0.3-0.6-0.7-0.6h-0.8V235.2z"/>
		<path fill="#FFFFFF" d="M477.7,234.5c0-0.5-0.3-0.7-0.8-0.7c-0.4,0-0.7,0.2-0.7,0.6c0,0.5,0.4,0.6,0.8,0.6
			c0.7,0.2,1.7,0.4,1.7,1.3c0,1.1-1,1.5-2,1.5c-1.1,0-1.8-0.4-1.8-1.6h1c0,0.5,0.3,0.9,0.8,0.9c0.4,0,0.9-0.1,0.9-0.6
			c0-0.5-0.7-0.6-1-0.7c-0.6-0.2-1.5-0.5-1.5-1.3c0-1,1-1.5,1.9-1.5c0.9,0,1.6,0.5,1.6,1.4H477.7z"/>
	</g>
	<g>
		<path fill="#FFFFFF" d="M474.3,249c0,5.2-2.7,12.1-6.3,16.3c-2.3,2.6-5.5,4.6-9.3,4.6c-6.2,0-7.8-4.6-7.8-9.1
			c0-5.6,2.6-12.3,6.1-16.2c2.6-3,5.7-5,9.3-5C472.6,239.6,474.3,244.4,474.3,249z M459,253.4c-1.6,4.3-2.4,8.5-2.4,10.8
			c0,2.6,1,3.7,2.3,3.7c1.6,0,3.1-1.7,4.6-4.6c2.6-5.3,5.3-13.4,5.3-17.7c0-1.5,0-3.8-2-3.8C463.4,241.7,460.8,248.3,459,253.4z"/>
	</g>
	<rect x="449.9" y="270.7" fill="none" width="29.4" height="10.9"/>
	
		<text transform="matrix(0.7 0 0 0.7 449.9316 275.3604)" fill="#FFFFFF" font-family="'AGaramondPro-BoldItalic'" font-size="6.5619" letter-spacing="1.4">year</text>
	<path fill="#FF5000" d="M519.4,238.4"/>
	<g>
		<path fill="#FFFFFF" d="M449,294.9c1.2-0.6,1.8-1.1,1.8-1.4c0-0.3-0.3-0.5-0.6-0.5c-0.4,0-0.7,0.2-0.7,0.5H449
			c0-0.5,0.5-0.8,1.1-0.8c0.7,0,1.1,0.3,1.1,0.7c0,0.4-0.5,0.9-1.7,1.5v0h1.8v0.3H449V294.9z"/>
		<path fill="#FFFFFF" d="M453.8,292.7c0.8,0,1.2,0.4,1.2,1.3c0,0.9-0.5,1.3-1.2,1.3c-0.8,0-1.2-0.4-1.2-1.3
			C452.6,293.2,453,292.7,453.8,292.7z M453.8,295c0.6,0,0.8-0.4,0.8-1c0-0.6-0.3-1-0.8-1c-0.6,0-0.8,0.4-0.8,1
			C453,294.6,453.2,295,453.8,295z"/>
		<path fill="#FFFFFF" d="M457.4,292.7c0.8,0,1.2,0.4,1.2,1.3c0,0.9-0.5,1.3-1.2,1.3c-0.8,0-1.2-0.4-1.2-1.3
			C456.2,293.2,456.7,292.7,457.4,292.7z M457.4,295c0.6,0,0.8-0.4,0.8-1c0-0.6-0.3-1-0.8-1c-0.6,0-0.8,0.4-0.8,1
			C456.6,294.6,456.9,295,457.4,295z"/>
		<path fill="#FFFFFF" d="M460.7,293.8h0.2c0.6,0,0.8-0.2,0.8-0.4c0-0.3-0.3-0.4-0.7-0.4c-0.4,0-0.7,0.1-0.7,0.4H460
			c0-0.4,0.5-0.7,1-0.7c0.8,0,1.2,0.3,1.2,0.7c0,0.2-0.2,0.5-0.5,0.6v0c0.4,0.1,0.6,0.3,0.6,0.6c0,0.5-0.4,0.7-1.3,0.7
			c-0.7,0-1.1-0.3-1.1-0.7h0.4c0,0.3,0.3,0.4,0.7,0.4c0.5,0,0.8-0.2,0.8-0.5c0-0.3-0.3-0.4-0.9-0.4h-0.2V293.8z"/>
		<path fill="#FFFFFF" d="M463.5,294.2h1.3v0.3h-1.3V294.2z"/>
		<path fill="#FFFFFF" d="M466.1,294.9c1.2-0.6,1.8-1.1,1.8-1.4c0-0.3-0.3-0.5-0.6-0.5c-0.4,0-0.7,0.2-0.7,0.5h-0.4
			c0-0.5,0.5-0.8,1.1-0.8c0.7,0,1.1,0.3,1.1,0.7c0,0.4-0.5,0.9-1.7,1.5v0h1.8v0.3h-2.3V294.9z"/>
		<path fill="#FFFFFF" d="M470.9,292.7c0.8,0,1.2,0.4,1.2,1.3c0,0.9-0.5,1.3-1.2,1.3c-0.8,0-1.2-0.4-1.2-1.3
			C469.7,293.2,470.1,292.7,470.9,292.7z M470.9,295c0.6,0,0.8-0.4,0.8-1c0-0.6-0.3-1-0.8-1c-0.6,0-0.8,0.4-0.8,1
			C470.1,294.6,470.3,295,470.9,295z"/>
		<path fill="#FFFFFF" d="M474.5,293.2c-0.2,0.2-0.5,0.3-0.8,0.4v-0.3c0.3-0.1,0.6-0.3,0.8-0.5h0.4v2.4h-0.4V293.2z"/>
		<path fill="#FFFFFF" d="M477.5,293.8h0.2c0.6,0,0.8-0.2,0.8-0.4c0-0.3-0.3-0.4-0.7-0.4c-0.4,0-0.7,0.1-0.7,0.4h-0.4
			c0-0.4,0.5-0.7,1-0.7c0.8,0,1.2,0.3,1.2,0.7c0,0.2-0.2,0.5-0.5,0.6v0c0.4,0.1,0.6,0.3,0.6,0.6c0,0.5-0.4,0.7-1.3,0.7
			c-0.7,0-1.1-0.3-1.1-0.7h0.4c0,0.3,0.3,0.4,0.7,0.4c0.5,0,0.8-0.2,0.8-0.5c0-0.3-0.3-0.4-0.9-0.4h-0.2V293.8z"/>
	</g>
</g>
</svg>
