<?xml version="1.0" encoding="utf-8"?>
<!-- Generator: Adobe Illustrator 18.0.0, SVG Export Plug-In . SVG Version: 6.00 Build 0)  -->
<!DOCTYPE svg PUBLIC "-//W3C//DTD SVG 1.1//EN" "http://www.w3.org/Graphics/SVG/1.1/DTD/svg11.dtd">
<svg version="1.1" id="Layer_1" xmlns="http://www.w3.org/2000/svg" xmlns:xlink="http://www.w3.org/1999/xlink" x="0px" y="0px"
	 viewBox="1.7 47.5 248.8 50.1" enable-background="new 1.7 47.5 248.8 50.1" xml:space="preserve">
<g id="text_copy_SMALL">
	<g>
		<path fill="#FFFFFF" stroke="#FFFFFF" stroke-miterlimit="10" d="M3.2,89.4h3.9c1.6,0,2.5,0.7,2.5,1.9c0,0.8-0.4,1.6-1.5,1.9l0,0
			C9,93.4,9.3,94,9.4,94.7s0,1.5,0.5,2H8.6c-0.3-0.3-0.1-1.1-0.3-1.8c-0.1-0.7-0.3-1.4-1.4-1.4H4.2v3.2h-1V89.4z M6.6,92.8
			c1.1,0,1.9-0.2,1.9-1.3c0-0.7-0.4-1.3-1.5-1.3H4.2v2.5h2.4V92.8z"/>
		<path fill="#FFFFFF" stroke="#FFFFFF" stroke-miterlimit="10" d="M13.5,89.4h5.8v0.8h-4.6v2.3H19v0.8h-4.3v2.5h4.7v0.8h-5.8v-7.4
			h-0.1V89.4z"/>
		<path fill="#FFFFFF" stroke="#FFFFFF" stroke-miterlimit="10" d="M27.9,91.6c-0.1-1.1-0.9-1.5-2.1-1.5c-0.9,0-1.9,0.3-1.9,1.3
			c0,0.9,1.4,1.1,2.7,1.3c1.4,0.3,2.6,0.6,2.6,2.1c0,1.6-1.8,2.2-3.3,2.2c-1.9,0-3.5-0.8-3.5-2.6h1.1c0,1.3,1.2,1.8,2.4,1.8
			c1.1,0,2.1-0.3,2.1-1.4s-1.4-1.2-2.6-1.5c-1.4-0.2-2.7-0.6-2.7-2c0-1.5,1.5-2.1,3.1-2.1c1.7,0,3.1,0.7,3.1,2.3H28v0.1H27.9z"/>
		<path fill="#FFFFFF" stroke="#FFFFFF" stroke-miterlimit="10" d="M34.8,90.2H32v-0.8h6.7v0.8h-2.8v6.5h-1.2L34.8,90.2L34.8,90.2z"
			/>
		<path fill="#FFFFFF" stroke="#FFFFFF" stroke-miterlimit="10" d="M43.3,89.4h1.3l3.3,7.4h-1.3l-0.9-2.2h-3.5l-0.9,2.2H40
			L43.3,89.4z M42.4,93.7h2.8l-1.4-3.5l0,0L42.4,93.7z"/>
		<path fill="#FFFFFF" stroke="#FFFFFF" stroke-miterlimit="10" d="M57.7,94.1c0,1.9-1.2,2.8-3.3,2.8c-2.2,0-3.5-0.8-3.5-2.8v-4.7
			h1.2v4.7c0,1.3,0.8,2,2.3,2c1.4,0,2.2-0.7,2.2-2v-4.7h1.2v4.7H57.7z"/>
		<path fill="#FFFFFF" stroke="#FFFFFF" stroke-miterlimit="10" d="M61.8,89.4h3.9c1.6,0,2.5,0.7,2.5,1.9c0,0.8-0.4,1.6-1.5,1.9l0,0
			c0.9,0.2,1.2,0.8,1.3,1.5c0.1,0.7,0,1.5,0.5,2h-1.3c-0.3-0.3-0.1-1.1-0.3-1.8c-0.1-0.7-0.3-1.4-1.4-1.4h-2.7v3.2h-1.2v-7.3
			C61.6,89.4,61.8,89.4,61.8,89.4z M65.2,92.8c1.1,0,1.9-0.2,1.9-1.3c0-0.7-0.4-1.3-1.5-1.3h-2.7v2.5h2.3V92.8z"/>
		<path fill="#FFFFFF" stroke="#FFFFFF" stroke-miterlimit="10" d="M74.4,89.4h1.3l3.3,7.4h-1.3l-0.9-2.2h-3.6l-0.9,2.2h-1.2
			L74.4,89.4z M73.6,93.7h2.8L75,90.2l0,0L73.6,93.7z"/>
		<path fill="#FFFFFF" stroke="#FFFFFF" stroke-miterlimit="10" d="M82.1,89.4h1.2l4.4,6l0,0v-6h1.1v7.4h-1.3l-4.3-5.9l0,0v5.9h-1.1
			C82.1,96.8,82.1,89.4,82.1,89.4z"/>
		<path fill="#FFFFFF" stroke="#FFFFFF" stroke-miterlimit="10" d="M94.8,90.2H92v-0.8h6.7v0.8h-2.8v6.5h-1.2v-6.5H94.8z"/>
		<path fill="#FFFFFF" stroke="#FFFFFF" stroke-miterlimit="10" d="M110,89.4h3.7c1.7,0,2.5,0.8,2.5,2.2s-0.9,2.2-2.5,2.2h-2.5v3.1
			H110V89.4z M111.2,92.9h2.2c1.3,0,1.8-0.5,1.8-1.4c0-0.8-0.5-1.4-1.8-1.4h-2.2V92.9z"/>
		<path fill="#FFFFFF" stroke="#FFFFFF" stroke-miterlimit="10" d="M121.4,89.4h1.3l3.3,7.4h-1.3l-0.9-2.2h-3.6l-0.9,2.2H118
			L121.4,89.4z M120.5,93.7h2.8l-1.4-3.5l0,0L120.5,93.7z"/>
		<path fill="#FFFFFF" stroke="#FFFFFF" stroke-miterlimit="10" d="M131.7,93.8v3.1h-1.2v-3.1l-3.3-4.3h1.4l2.5,3.5l2.4-3.5h1.3
			L131.7,93.8z"/>
		<path fill="#FFFFFF" stroke="#FFFFFF" stroke-miterlimit="10" d="M138.1,89.4h3.9c1.6,0,2.5,0.7,2.5,1.9c0,0.8-0.4,1.6-1.5,1.9
			l0,0c0.9,0.2,1.2,0.8,1.3,1.5s0,1.5,0.5,2h-1.3c-0.3-0.3-0.1-1.1-0.3-1.8c-0.1-0.7-0.3-1.4-1.4-1.4h-2.7v3.2H138v-7.3
			C138,89.4,138.1,89.4,138.1,89.4z M141.6,92.8c1.1,0,1.9-0.2,1.9-1.3c0-0.7-0.4-1.3-1.5-1.3h-2.7v2.5h2.3V92.8z"/>
		<path fill="#FFFFFF" stroke="#FFFFFF" stroke-miterlimit="10" d="M152.1,89.3c2.6,0,4,1.9,4,3.9s-1.4,3.9-4,3.9s-4-1.9-4-3.9
			C148,91.1,149.4,89.3,152.1,89.3z M152.1,96.1c2,0,2.9-1.6,2.9-3.1s-0.8-3.1-2.9-3.1c-2,0-2.9,1.6-2.9,3.1S150,96.1,152.1,96.1z"
			/>
		<path fill="#FFFFFF" stroke="#FFFFFF" stroke-miterlimit="10" d="M159.8,89.4h1.2v6.5h4.4v0.8h-5.6L159.8,89.4L159.8,89.4z"/>
		<path fill="#FFFFFF" stroke="#FFFFFF" stroke-miterlimit="10" d="M168.6,89.4h1.2v6.5h4.4v0.8h-5.6L168.6,89.4L168.6,89.4z"/>
		<path fill="#FFFFFF" stroke="#FFFFFF" stroke-miterlimit="10" d="M185.6,89.4h5.8v0.8h-4.6v2.3h4.3v0.8h-4.3v2.5h4.7v0.8h-5.8
			v-7.4h-0.1V89.4z"/>
		<path fill="#FFFFFF" stroke="#FFFFFF" stroke-miterlimit="10" d="M197.1,92.9l-2.7-3.6h1.4l2.1,2.8l2.2-2.8h1.3l-2.7,3.6l2.9,3.8
			H200l-2.2-3.1l-2.3,3.1h-1.3L197.1,92.9z"/>
		<path fill="#FFFFFF" stroke="#FFFFFF" stroke-miterlimit="10" d="M204.5,89.4h3.7c1.7,0,2.5,0.8,2.5,2.2s-0.9,2.2-2.5,2.2h-2.5
			v3.1h-1.2V89.4z M205.7,92.9h2.2c1.3,0,1.8-0.5,1.8-1.4c0-0.8-0.5-1.4-1.8-1.4h-2.2V92.9z"/>
		<path fill="#FFFFFF" stroke="#FFFFFF" stroke-miterlimit="10" d="M214.5,89.4h5.8v0.8h-4.6v2.3h4.3v0.8h-4.3v2.5h4.7v0.8h-5.8
			v-7.4h-0.1V89.4z"/>
		<path fill="#FFFFFF" stroke="#FFFFFF" stroke-miterlimit="10" d="M224,89.4h3.9c1.6,0,2.5,0.7,2.5,1.9c0,0.8-0.4,1.6-1.5,1.9l0,0
			c0.9,0.2,1.2,0.8,1.3,1.5s0,1.5,0.5,2h-1.3c-0.3-0.3-0.1-1.1-0.3-1.8c-0.1-0.7-0.3-1.4-1.4-1.4H225v3.2h-1.2v-7.3
			C223.8,89.4,224,89.4,224,89.4z M227.5,92.8c1.1,0,1.9-0.2,1.9-1.3c0-0.7-0.4-1.3-1.5-1.3h-2.7v2.5h2.3V92.8z"/>
		<path fill="#FFFFFF" stroke="#FFFFFF" stroke-miterlimit="10" d="M236.1,90.2h-2.8v-0.8h6.7v0.8h-2.8v6.5H236v-6.5H236.1z"/>
		<path fill="#FFFFFF" stroke="#FFFFFF" stroke-miterlimit="10" d="M248.1,91.6c-0.1-1.1-0.9-1.5-2.1-1.5c-0.9,0-1.9,0.3-1.9,1.3
			c0,0.9,1.4,1.1,2.7,1.3c1.4,0.3,2.6,0.6,2.6,2.1c0,1.6-1.8,2.2-3.3,2.2c-1.9,0-3.5-0.8-3.5-2.6h1.1c0,1.3,1.2,1.8,2.4,1.8
			c1.1,0,2.1-0.3,2.1-1.4s-1.4-1.2-2.6-1.5c-1.4-0.2-2.7-0.6-2.7-2c0-1.5,1.5-2.1,3.1-2.1c1.7,0,3.1,0.7,3.1,2.3h-0.9v0.1H248.1z"/>
	</g>
</g>
<g id="_x32__x5F_orange_logo_SMALL">
	<g>
		<g>
			<g>
				<g>
					<defs>
						<rect id="SVGID_2_" x="2.2" y="48" width="247.8" height="37.6"/>
					</defs>
					<clipPath id="SVGID_3_">
						<use xlink:href="#SVGID_2_"  overflow="visible"/>
					</clipPath>
					
						<rect x="3.1" y="48.9" clip-path="url(#SVGID_3_)" fill="none" stroke="#FFFFFF" stroke-miterlimit="10" width="246" height="35.9"/>
				</g>
			</g>
			<g>
				<g>
					<defs>
						<rect id="SVGID_4_" x="2.2" y="48" width="247.8" height="37.6"/>
					</defs>
					<clipPath id="SVGID_5_">
						<use xlink:href="#SVGID_4_"  overflow="visible"/>
					</clipPath>
					
						<line clip-path="url(#SVGID_5_)" fill="none" stroke="#FFFFFF" stroke-miterlimit="10" x1="192.2" y1="48.9" x2="192.2" y2="84.7"/>
				</g>
			</g>
			<g>
				<g>
					<defs>
						<rect id="SVGID_6_" x="2.2" y="48" width="247.8" height="37.6"/>
					</defs>
					<clipPath id="SVGID_7_">
						<use xlink:href="#SVGID_6_"  overflow="visible"/>
					</clipPath>
					<polygon clip-path="url(#SVGID_7_)" fill="#FFFFFF" points="204.7,56.8 210.8,56.8 218.2,72.3 218.2,56.8 222.2,56.8 
						222.2,76.5 216.4,76.5 208.7,60.2 208.7,76.5 204.7,76.5 					"/>
				</g>
			</g>
			<g>
				<g>
					<defs>
						<rect id="SVGID_8_" x="2.2" y="48" width="247.8" height="37.6"/>
					</defs>
					<clipPath id="SVGID_9_">
						<use xlink:href="#SVGID_8_"  overflow="visible"/>
					</clipPath>
					<rect x="196.8" y="56.8" clip-path="url(#SVGID_9_)" fill="#FFFFFF" width="4.2" height="19.7"/>
				</g>
			</g>
			<g>
				<g>
					<defs>
						<rect id="SVGID_10_" x="2.2" y="48" width="247.8" height="37.6"/>
					</defs>
					<clipPath id="SVGID_11_">
						<use xlink:href="#SVGID_10_"  overflow="visible"/>
					</clipPath>
					<g clip-path="url(#SVGID_11_)">
						<path fill="#FFFFFF" d="M236.9,63.3c-0.1-0.6-0.3-3.5-3.2-3.5c-3.2,0-4.4,3.3-4.4,7.4c0,1.2,0,6.7,4.1,6.7
							c1.8,0,3.5-1.2,3.6-3.7h4.4c-0.1,1.2-0.2,2.9-1.8,4.6c-1.8,1.8-4,2.2-5.8,2.2c-6.7,0-8.9-5.1-8.9-9.9c0-6.2,3.5-10.4,9.1-10.4
							c4.3,0,7.4,2.6,7.4,6.5h-4.5V63.3z"/>
						<path fill="#FFFFFF" d="M35.3,69.2l-2.7-8.4l-2.9,8.4H35.3z M35.2,56.9L42,76.6h-4.2l-1.4-4.2h-7.8l-1.5,4.2h-4l7.1-19.7
							C30.2,56.9,35.2,56.9,35.2,56.9z"/>
						<polygon fill="#FFFFFF" points="44.3,57.1 48.4,66 52.5,57.1 56.8,57.1 50.2,69.5 50.2,76.6 46,76.6 46,69.5 39.4,57.1 						
							"/>
						<polygon fill="#FFFFFF" points="58.7,56.9 65.7,56.9 69.8,71.3 74.3,56.9 81.1,56.9 81.1,76.6 76.8,76.6 76.8,59.8 71.5,76.6 
							68,76.6 62.7,59.8 62.7,76.6 58.7,76.6 						"/>
						<path fill="#FFFFFF" d="M95.2,69.2l-2.7-8.4l-2.9,8.4H95.2z M95.1,56.9l6.8,19.7h-4.2l-1.4-4.2h-7.9l-1.5,4.2h-4L90,56.9H95.1
							z"/>
						<path fill="#FFFFFF" d="M107.3,70.3c0,0.9-0.1,3.7,3.6,3.7c2.3,0,3.7-1.1,3.7-2.7c0-1.8-1.3-2-3.7-2.6c-4.6-1.2-7.3-2.5-7.3-6
							c0-3.3,2.3-6.1,7.8-6.1c2,0,4.4,0.4,5.9,2.3c1.2,1.4,1.2,2.9,1.2,3.7h-4.1c-0.1-0.6-0.3-2.9-3.2-2.9c-2,0-3.3,1.1-3.3,2.6
							c0,1.8,1.5,2.1,4.3,2.8c3.4,0.8,6.7,1.8,6.7,5.6c0,3.6-2.9,6.4-8.4,6.4c-7.6,0-7.6-4.8-7.6-6.7
							C102.9,70.3,107.3,70.3,107.3,70.3z"/>
						<polygon fill="#FFFFFF" points="125.9,60.2 120,60.2 120,56.9 136,56.9 136,60.2 130.1,60.2 130.1,76.6 125.9,76.6 						"/>
						<polygon fill="#FFFFFF" points="138.3,56.9 151.5,56.9 151.5,60.2 142.5,60.2 142.5,64.8 150.8,64.8 150.8,68.1 142.5,68.1 
							142.5,73.4 151.8,73.4 151.8,76.6 138.3,76.6 						"/>
						<path fill="#FFFFFF" d="M14.9,65.9h1.7c1.4,0,3.9,0,3.9-2.9c0-2.6-2.2-2.6-3.5-2.6h-2.1C14.9,60.3,14.9,65.9,14.9,65.9z
							 M10.8,57.1h6c2.8,0,5.2,0.2,6.8,2.1c1.1,1.3,1.2,2.6,1.2,3.7c0,2.3-0.9,4.2-2.5,5.3c-1.5,0.9-3.5,0.9-4.4,0.9h-2.8v7.7h-4.3
							L10.8,57.1L10.8,57.1z"/>
						<path fill="#FFFFFF" d="M176.1,70.3c0,0.9-0.1,3.7,3.6,3.7c2.3,0,3.7-1.1,3.7-2.7c0-1.8-1.3-2-3.7-2.6c-4.6-1.2-7.3-2.5-7.3-6
							c0-3.3,2.3-6.1,7.8-6.1c2,0,4.4,0.4,5.9,2.3c1.2,1.4,1.2,2.9,1.2,3.7h-4.1c-0.1-0.6-0.3-2.9-3.2-2.9c-2,0-3.3,1.1-3.3,2.6
							c0,1.8,1.5,2.1,4.3,2.8c3.4,0.8,6.7,1.8,6.7,5.6c0,3.6-2.9,6.4-8.4,6.4c-7.6,0-7.6-4.8-7.6-6.7
							C171.8,70.3,176.1,70.3,176.1,70.3z"/>
						<path fill="#FFFFFF" d="M158.7,65.6h3.4c0.5,0,1.5,0,2.1-0.5c0.3-0.2,1.1-0.9,1.1-2.3s-0.6-2-1.1-2.2
							c-0.6-0.4-1.5-0.4-2.7-0.4h-2.8V65.6L158.7,65.6L158.7,65.6z M154.5,56.9h7.6c2.2,0,4.4,0,6,1.4c1.3,1.1,1.7,2.5,1.7,3.8
							c0,3.7-3.2,4.5-4.1,4.8c2.9,0.3,3.2,2,3.6,4.5c0.3,2.3,0.4,3.3,0.6,3.8c0.2,0.8,0.4,1.1,0.6,1.4h-4.6
							c-0.2-1.1-0.8-6.1-1.1-6.8c-0.4-1.2-1.4-1.2-2.1-1.2H159v8h-4.3V56.9H154.5z"/>
					</g>
				</g>
			</g>
			<g>
				<rect id="SVGID_1_" x="2.2" y="48" fill="none" stroke="#FFFFFF" stroke-miterlimit="10" width="247.8" height="37.6"/>
			</g>
		</g>
	</g>
</g>
</svg>
