<?xml version="1.0" encoding="utf-8"?>
<!-- Generator: Adobe Illustrator 18.0.0, SVG Export Plug-In . SVG Version: 6.00 Build 0)  -->
<!DOCTYPE svg PUBLIC "-//W3C//DTD SVG 1.1//EN" "http://www.w3.org/Graphics/SVG/1.1/DTD/svg11.dtd">
<svg version="1.1" id="Layer_1" xmlns="http://www.w3.org/2000/svg" xmlns:xlink="http://www.w3.org/1999/xlink" x="0px" y="0px"
	 viewBox="0 0 499.5 382.9" enable-background="new 0 0 499.5 382.9" xml:space="preserve">
<g>
	<g>
		<g>
			<path fill="#FFFFFF" d="M371.8,107.8c0-24.8-23.7-44.9-53-44.9c0,0,0,0-0.1,0C317.8,28,287.8,0,251,0
				c-36.3,0-65.9,27.2-67.8,61.3c-27.1,0.6-48.8,20.9-48.8,45.9c0,25.4,22.4,46,50,46c3.1,0,6-0.3,9-0.8h121.2
				c1.4,0.1,2.9,0.2,4.4,0.2c1.5,0,2.9-0.1,4.4-0.2h2.1v-0.2C351.5,149.6,371.8,130.7,371.8,107.8z"/>
		</g>
		<g>
			<g>
				<g>
					<g>
						<g>
							<g>
								<g>
									<g>
										<path fill="#ECF0F1" d="M98.3,280.9v-20.1c-8.2,0.5-15.1,8.9-16.9,20.1H98.3z"/>
									</g>
								</g>
							</g>
							<g>
								<g>
									<g>
										<path fill="#FFFFFF" d="M99.9,280.9h16.9c-1.8-11.2-8.6-19.6-16.9-20.1V280.9z"/>
									</g>
								</g>
							</g>
							<g>
								<g>
									<g>
										<path fill="#FFFFFF" d="M81.3,282.5c-0.2,1.4-0.3,2.9-0.3,4.3c0,14.4,8.1,26,18.1,26c10,0,18.1-11.6,18.1-26
											c0-1.5-0.1-2.9-0.3-4.3H81.3z"/>
									</g>
								</g>
							</g>
							<g>
								<g>
									<g>
										<path fill="#ECF0F1" d="M99.1,283.4c0-0.3,0-0.6,0.1-0.9H81.3c-0.2,1.4-0.3,2.9-0.3,4.3c0,14.4,8.1,26,18.1,26l0,0V283.4z
											"/>
									</g>
								</g>
							</g>
						</g>
						<g>
							<g>
								<g>
									<path fill="#BDC3C7" d="M101.6,274.8c0,1.6-1.1,2.9-2.4,2.9l0,0c-1.3,0-2.4-1.3-2.4-2.9v-5c0-1.6,1.1-2.9,2.4-2.9l0,0
										c1.3,0,2.4,1.3,2.4,2.9V274.8z"/>
								</g>
							</g>
						</g>
					</g>
				</g>
			</g>
			<g>
				<g>
					<path fill="#EFEFEF" d="M99.2,261.7c-0.2,0-0.3,0-0.5-0.1c-0.6-0.3-0.8-0.9-0.6-1.5c0-0.1,1-2.3-0.2-4.1
						c-1.3-1.9-4.5-2.9-9.5-2.8l-49.3,0l-0.3-0.2c-0.2-0.1-5.4-3.4-5.3-7.8c0.1-2.6,1.9-4.9,5.3-6.8l0.3-0.1l0.3,0l125.1,1
						c1.3-1.1,3.8-3.7,3.5-6.1c-0.1-1.4-1.3-2.6-3.4-3.7H96.3l-0.3-0.2c-0.2-0.2-5.7-4-5.3-8.6c0.2-2.4,2-4.5,5.4-6.2l1.1-22.8
						c0-0.6,0.6-1.1,1.2-1.1c0.6,0,1.1,0.6,1.1,1.2L98.3,216l-0.6,0.3c-2.9,1.3-4.5,2.9-4.7,4.6c-0.2,2.5,2.6,5.2,4,6.3h68.3
						l0.2,0.1c3,1.4,4.7,3.3,4.9,5.6c0.5,4.3-4.5,8.2-4.7,8.4l-0.3,0.2l-125.6-1c-2.6,1.5-3.9,3.1-3.9,4.7c-0.1,2.4,2.6,4.7,4,5.7
						l48.6,0c5.8-0.1,9.7,1.2,11.4,3.8c1.9,2.9,0.4,6.2,0.4,6.3C100,261.4,99.6,261.7,99.2,261.7z"/>
				</g>
			</g>
			<g>
				<g>
					<g>
						<g>
							<g>
								<g>
									<g>
										<g>
											<g>
												<g>
													<g>
														<g>
															<rect x="24.8" y="108.2" fill="#D2D5D8" width="151.7" height="81.3"/>
														</g>
													</g>
												</g>
											</g>
										</g>
										<g>
											<g>
												<path fill="#D2D5D8" d="M185.2,189.5v-86.1c0-2.3-1.9-4.2-4.2-4.2H20.6c-2.3,0-4.2,1.9-4.2,4.2v86.1H185.2z"/>
											</g>
										</g>
										<g>
											<g>
												<g>
													<g>
														<g>
															<path d="M181,99.2H20.6c-2.3,0-4.2,1.9-4.2,4.2v86.1h168.7v-86.1C185.2,101.1,183.3,99.2,181,99.2z"/>
														</g>
													</g>
												</g>
											</g>
										</g>
										<g>
											<g>
												<g>
													<g>
														<g>
															<rect x="23.5" y="106.5" fill="#FFFFFF" width="154.3" height="82.9"/>
														</g>
													</g>
												</g>
											</g>
										</g>
										<g>
											<g>
												<g>
													<g>
														<g>
															<rect x="16.4" y="181.8" width="168.7" height="7.7"/>
														</g>
													</g>
												</g>
											</g>
										</g>
										<g>
											<g>
												<path fill="#28324E" d="M0,189.3h201.6c0,0-1.4,9.3-13.8,9.3H12.1C12.1,198.6,2,198.5,0,189.3z"/>
											</g>
										</g>
									</g>
								</g>
							</g>
						</g>
					</g>
				</g>
			</g>
		</g>
		<g>
			<g>
				<g>
					<g>
						<path fill="#F9D2B4" d="M234.6,275.7c0,0,3.7,9.2,13.3,9.5h22.8c0,0,6-1.1,12.3-9.5H234.6z"/>
					</g>
					<g>
						<rect x="247.5" y="280.5" fill="#F9D2B4" width="21.5" height="42"/>
					</g>
				</g>
				<g>
					<rect x="246.8" y="288.6" fill="#EFEFEF" width="23.4" height="33.9"/>
				</g>
				<g>
					<rect x="243.7" y="296.1" fill="#3CA5E0" width="28.4" height="86.8"/>
				</g>
				<g>
					<g>
						<path d="M294.9,273.7c0,2.4-1.9,4.3-4.3,4.3h-61.9c-2.4,0-4.3-1.9-4.3-4.3v-77c0-2.4,1.9-4.3,4.3-4.3h61.9
							c2.4,0,4.3,1.9,4.3,4.3V273.7z"/>
					</g>
					<g>
						<rect x="231.6" y="201" fill="#C3D1E0" width="56.2" height="68.3"/>
					</g>
					<g>
						<rect x="232.8" y="202.2" fill="#FFFFFF" width="55" height="67.2"/>
					</g>
					<g>
						<path fill="#202021" d="M264.8,274.2c0,0.9-0.7,1.5-1.5,1.5h-6.5c-0.9,0-1.5-0.7-1.5-1.5l0,0c0-0.9,0.7-1.5,1.5-1.5h6.5
							C264.1,272.7,264.8,273.3,264.8,274.2L264.8,274.2z"/>
					</g>
				</g>
				<g>
					<g>
						<path fill="#F0D0B4" d="M231.5,192.4c0,0,0.5-22.1,6.2-20c0,0,5.7-1,5.7,17.7v2.4H231.5z"/>
					</g>
					<g>
						<path fill="#F0D0B4" d="M242.5,182.4c0,0,6.2-5.1,9.4,0c0,0,4.2-5.3,8.8-1.1c0,0,6.2-5,8.8,1.1c0,0,6.2-4.6,8.8,0l6.2,10.1
							h-42.1V182.4"/>
					</g>
					<g>
						<path fill="#F0D0B4" d="M242.3,182.4c0,0-1.7,21.5,4.8,23.6c0,0,7.5,2.2,5.1-20c0,0,0.8,19.9,1.3,21.6c0,0,4.5,6.1,7.5-0.8
							c0,0,0.9-3.6,0.7-19.6c0,0,0.1,19.3,2.7,21.8c0,0,2.5,2.2,4.2-0.3c0,0,2.3-1.3,1.6-19.5l0.9,9.1l1.9,4.8c0,0,3.8,3.2,4.7-1.6
							l-0.8-10.7l-0.8-6.4L242.3,182.4z"/>
					</g>
					<g>
						<path fill="#ECC19C" d="M242.9,182.1c0,0-1.3,5.5-0.6,10"/>
					</g>
					<g>
						<path fill="#ECC19C" d="M251.8,183.3c0,0,0.1,0.8,0.3,2c0.1,1.2,0.3,2.8,0.4,4.4c0.1,1.6,0.2,3.2,0.2,4.4c0,1.2,0,2,0,2
							s-0.1-0.8-0.3-2c-0.1-1.2-0.3-2.8-0.4-4.4c-0.1-1.6-0.2-3.2-0.2-4.4C251.8,184.1,251.8,183.3,251.8,183.3z"/>
					</g>
					<g>
						<path fill="#ECC19C" d="M260.9,182.4c0,0,0.1,0.6,0.3,1.5c0.1,0.9,0.3,2.1,0.4,3.4c0.1,1.2,0.2,2.5,0.2,3.4c0,0.9,0,1.5,0,1.5
							s-0.1-0.6-0.3-1.5c-0.1-0.9-0.3-2.1-0.4-3.4c-0.1-1.2-0.2-2.5-0.2-3.4C260.9,183,260.9,182.4,260.9,182.4z"/>
					</g>
					<g>
						<path fill="#ECC19C" d="M269.5,182.9c0,0,0.1,0.5,0.3,1.4c0.1,0.8,0.3,1.9,0.5,3c0.1,1.1,0.2,2.2,0.3,3c0,0.4,0,0.8,0.1,1
							c0,0.2,0,0.4,0,0.4s0-0.1-0.1-0.4c-0.1-0.2-0.2-0.6-0.3-1c-0.2-0.8-0.4-1.9-0.5-3c-0.1-1.1-0.2-2.2-0.2-3.1
							C269.5,183.4,269.5,182.9,269.5,182.9z"/>
					</g>
					<g>
						<path fill="#ECC19C" d="M276,184.8c0,0,0.1,0.4,0.3,1.1c0.2,0.6,0.3,1.5,0.4,2.4c0.1,0.9,0.2,1.7,0.2,2.4c0,0.7,0,1.1,0,1.1
							s-0.1-0.4-0.3-1.1c-0.2-0.6-0.3-1.5-0.4-2.4c-0.1-0.9-0.2-1.7-0.2-2.4C276,185.2,276,184.8,276,184.8z"/>
					</g>
					<g opacity="0.7">
						<path fill="#E4B69D" d="M244.5,200.3h6.8C251.2,200.3,248.3,209,244.5,200.3z"/>
					</g>
					<g opacity="0.7">
						<path fill="#E4B69D" d="M254.2,204.5h5.7C259.9,204.5,257.8,213.9,254.2,204.5z"/>
					</g>
					<g opacity="0.7">
						<path fill="#E4B69D" d="M264,205.3h4.9C268.9,205.3,266.3,212.4,264,205.3z"/>
					</g>
					<g opacity="0.7">
						<path fill="#E4B69D" d="M273.1,201.4l3.8-1.1C277,200.3,276.4,206.2,273.1,201.4z"/>
					</g>
					<g>
						<path fill="#ECC19C" d="M243.9,192.8c0,0,0.4-0.1,1.1-0.1c0.7-0.1,1.5-0.1,2.4-0.1c0.9,0,1.7,0.1,2.4,0.1
							c0.7,0.1,1.1,0.2,1.1,0.2s-0.4,0.1-1.1,0.1c-0.7,0.1-1.5,0.1-2.4,0.1c-0.9,0-1.7-0.1-2.4-0.1
							C244.3,192.8,243.9,192.8,243.9,192.8z"/>
					</g>
					<g>
						<path fill="#ECC19C" d="M253.5,192.4c0,0,0.4-0.1,1.1-0.1c0.7-0.1,1.5-0.1,2.4-0.1c0.9,0,1.7,0.1,2.4,0.1
							c0.7,0.1,1.1,0.2,1.1,0.2s-0.4,0.1-1.1,0.1c-0.7,0.1-1.5,0.1-2.4,0.1c-0.9,0-1.7-0.1-2.4-0.1
							C254,192.5,253.5,192.4,253.5,192.4z"/>
					</g>
					<g>
						<path fill="#ECC19C" d="M263.9,192.4c0,0,0.3-0.1,0.8-0.1c0.5-0.1,1.1-0.1,1.7-0.1c0.6,0,1.3,0,1.7,0.1
							c0.5,0.1,0.8,0.1,0.8,0.1s-0.3,0.1-0.8,0.1c-0.5,0.1-1.1,0.1-1.7,0.1c-0.6,0-1.3-0.1-1.7-0.1
							C264.2,192.4,263.9,192.4,263.9,192.4z"/>
					</g>
					<g>
						<path fill="#ECC19C" d="M271.6,192.1c0,0,0.3-0.1,0.7-0.1c0.4-0.1,1-0.1,1.5-0.1c0.5,0,1.1,0.1,1.5,0.1
							c0.4,0.1,0.7,0.2,0.7,0.2s-0.3,0.1-0.7,0.1c-0.4,0.1-1,0.1-1.5,0.1c-0.5,0-1.1-0.1-1.5-0.1
							C271.9,192.2,271.6,192.1,271.6,192.1z"/>
					</g>
					<g>
						<path fill="#ECC19C" d="M244.3,192.1c0,0,0.4-0.1,0.9-0.1c0.5-0.1,1.3-0.1,2-0.1c0.7,0,1.4,0.1,2,0.1c0.5,0.1,0.9,0.2,0.9,0.2
							s-0.4,0.1-0.9,0.1c-0.5,0.1-1.3,0.1-2,0.1c-0.7,0-1.4-0.1-2-0.1C244.7,192.2,244.3,192.1,244.3,192.1z"/>
					</g>
					<g>
						<path fill="#ECC19C" d="M254.4,191.7c0,0,0.3-0.1,0.8-0.1c0.5-0.1,1.1-0.1,1.7-0.1c0.6,0,1.3,0.1,1.7,0.1
							c0.5,0.1,0.8,0.1,0.8,0.1s-0.3,0.1-0.8,0.1c-0.5,0.1-1.1,0.1-1.7,0.1c-0.6,0-1.3-0.1-1.7-0.1
							C254.7,191.8,254.4,191.7,254.4,191.7z"/>
					</g>
					<g>
						<path fill="#ECC19C" d="M263.9,191.4c0,0,0.3-0.1,0.8-0.1c0.5-0.1,1.1-0.1,1.7-0.1c0.6,0,1.3,0,1.7,0.1
							c0.5,0.1,0.8,0.1,0.8,0.1s-0.3,0.1-0.8,0.2c-0.5,0.1-1.1,0.1-1.7,0.1c-0.6,0-1.3,0-1.7-0.1
							C264.2,191.5,263.9,191.4,263.9,191.4z"/>
					</g>
					<g>
						<path fill="#ECC19C" d="M271.6,191.4c0,0,0.3-0.1,0.7-0.1c0.4-0.1,1-0.1,1.5-0.1c0.5,0,1.1,0.1,1.5,0.1
							c0.4,0.1,0.7,0.1,0.7,0.1s-0.3,0.1-0.7,0.1c-0.4,0.1-1,0.1-1.5,0.1c-0.5,0-1.1-0.1-1.5-0.1
							C271.9,191.5,271.6,191.4,271.6,191.4z"/>
					</g>
				</g>
			</g>
		</g>
		<g>
			<g>
				<g>
					<g>
						<g>
							<g>
								<rect x="392.2" y="215.5" fill="#3A3A3A" width="47" height="47"/>
							</g>
						</g>
					</g>
					<g>
						<g>
							<g>
								<polygon fill="#B1B1B2" points="439.2,229.9 415.7,229.9 392.2,229.9 388.7,260.8 415.7,260.8 442.7,260.8 								"/>
							</g>
						</g>
					</g>
					<g>
						<g>
							<g>
								<path fill="#D2D5D8" d="M499.5,229.8c0,2.3-1.9,4.2-4.2,4.2H334.4c-2.3,0-4.2-1.9-4.2-4.2V127.6c0-2.3,1.9-4.2,4.2-4.2
									h160.9c2.3,0,4.2,1.9,4.2,4.2V229.8z"/>
							</g>
						</g>
					</g>
					<g>
						<g>
							<g>
								<rect x="338.6" y="132.5" fill="#D2D5D8" width="152.3" height="81.5"/>
							</g>
						</g>
					</g>
					<g>
						<g>
							<g>
								<path d="M495.4,123.4H334.4c-2.3,0-4.2,1.9-4.2,4.2V214h169.3v-86.4C499.5,125.3,497.7,123.4,495.4,123.4z"/>
							</g>
						</g>
					</g>
					<g>
						<g>
							<g>
								<path fill="#B6B6B7" d="M389.7,252.3l-1,8.5h27h27l-1-9.2C419.7,239.5,399.1,247.2,389.7,252.3z"/>
							</g>
						</g>
					</g>
					<g>
						<g>
							<g>
								<rect x="340.5" y="134.4" fill="#FFFFFF" width="150.3" height="79.6"/>
							</g>
						</g>
					</g>
					<g>
						<g>
							<g>
								<polygon fill="#C4C5C6" points="454.8,262.1 452.6,260.2 380,260.2 376.6,262.1 376.6,264.5 454.8,264.5 454.8,262.8 
									454.2,262.1 								"/>
							</g>
						</g>
					</g>
					<g>
						<g>
							<g>
								<rect x="376.6" y="262.1" fill="#D2D5D8" width="78.2" height="2.5"/>
							</g>
						</g>
					</g>
					<g>
						<g>
							<g>
								<rect x="330.2" y="204.7" width="169.3" height="9.3"/>
							</g>
						</g>
					</g>
				</g>
			</g>
		</g>
		<g opacity="0.3">
			<g>
				<path fill="#FFFFFF" d="M69.2,84.1c-0.5,0-1.1-0.2-1.5-0.6c-0.8-0.8-0.8-2.1,0.1-2.9c1.2-1.2,2.5-2.4,3.9-3.6
					c0.9-0.8,2.2-0.7,2.9,0.2c0.8,0.9,0.7,2.2-0.2,2.9c-1.3,1.2-2.6,2.3-3.8,3.5C70.2,84,69.7,84.1,69.2,84.1z M79.4,75.2
					c-0.6,0-1.2-0.3-1.6-0.8c-0.7-0.9-0.6-2.2,0.3-2.9c1.3-1.1,2.7-2.2,4.1-3.3c0.9-0.7,2.2-0.5,2.9,0.4c0.7,0.9,0.5,2.2-0.4,2.9
					c-1.4,1-2.7,2.1-4,3.2C80.3,75.1,79.8,75.2,79.4,75.2z M90.2,67.1c-0.7,0-1.3-0.3-1.7-0.9c-0.7-0.9-0.4-2.2,0.5-2.9
					c1.4-1,2.9-2,4.4-2.9c1-0.6,2.3-0.4,2.9,0.6c0.6,1,0.4,2.2-0.6,2.9c-1.4,0.9-2.9,1.9-4.3,2.9C91,67,90.6,67.1,90.2,67.1z
					 M101.6,59.9c-0.7,0-1.4-0.4-1.8-1c-0.6-1-0.2-2.3,0.7-2.8c1.5-0.9,3.1-1.8,4.6-2.6c1-0.6,2.3-0.2,2.8,0.8
					c0.6,1,0.2,2.3-0.8,2.8c-1.5,0.8-3,1.7-4.5,2.5C102.3,59.8,101.9,59.9,101.6,59.9z M113.5,53.5c-0.8,0-1.5-0.4-1.9-1.2
					c-0.5-1-0.1-2.3,1-2.8c1.6-0.8,3.2-1.5,4.8-2.2c1-0.5,2.3,0,2.7,1.1c0.5,1.1,0,2.3-1.1,2.7c-1.5,0.7-3.1,1.4-4.7,2.2
					C114.1,53.4,113.8,53.5,113.5,53.5z M125.9,48.2c-0.8,0-1.6-0.5-1.9-1.3c-0.4-1.1,0.1-2.3,1.2-2.7c1.6-0.6,3.3-1.2,5-1.8
					c1.1-0.4,2.3,0.2,2.6,1.3c0.4,1.1-0.2,2.3-1.3,2.6c-1.6,0.5-3.2,1.1-4.8,1.7C126.4,48.1,126.2,48.2,125.9,48.2z M138.7,43.9
					c-0.9,0-1.7-0.6-2-1.5c-0.3-1.1,0.3-2.3,1.4-2.6c1.7-0.5,3.4-0.9,5.1-1.3c1.1-0.3,2.2,0.4,2.5,1.5c0.3,1.1-0.4,2.2-1.5,2.5
					c-1.7,0.4-3.3,0.8-5,1.3C139.1,43.9,138.9,43.9,138.7,43.9z M151.9,40.9c-1,0-1.9-0.7-2-1.7c-0.2-1.1,0.5-2.2,1.7-2.4
					c1.7-0.3,3.5-0.6,5.2-0.8c1.1-0.2,2.2,0.6,2.4,1.8c0.2,1.1-0.6,2.2-1.8,2.4c-1.7,0.2-3.4,0.5-5.1,0.8
					C152.1,40.9,152,40.9,151.9,40.9z"/>
			</g>
			<g>
				<g>
					<circle fill="#FFFFFF" cx="69.5" cy="81.8" r="7.6"/>
				</g>
			</g>
			<g>
				<g>
					<polygon fill="#FFFFFF" points="175.5,36.6 155.5,46.4 159.8,37.7 154.3,29.6 					"/>
				</g>
			</g>
		</g>
		<g opacity="0.3">
			<g>
				<path fill="#FFFFFF" d="M430.3,106.7c-0.6,0-1.3-0.3-1.7-0.8c-1-1.3-2.1-2.7-3.2-4c-0.7-0.9-0.6-2.2,0.3-2.9
					c0.9-0.7,2.2-0.6,2.9,0.3c1.1,1.4,2.2,2.8,3.3,4.2c0.7,0.9,0.5,2.2-0.4,2.9C431.2,106.6,430.8,106.7,430.3,106.7z M421.7,96.3
					c-0.6,0-1.1-0.2-1.6-0.7c-1.1-1.3-2.3-2.5-3.5-3.8c-0.8-0.8-0.8-2.1,0.1-2.9c0.8-0.8,2.1-0.8,2.9,0.1c1.2,1.3,2.4,2.6,3.6,3.9
					c0.8,0.9,0.7,2.2-0.2,2.9C422.7,96.1,422.2,96.3,421.7,96.3z M412.4,86.5c-0.5,0-1-0.2-1.4-0.6c-1.2-1.2-2.5-2.4-3.8-3.5
					c-0.9-0.8-0.9-2.1-0.1-2.9c0.8-0.8,2.1-0.9,2.9-0.1c1.3,1.2,2.6,2.4,3.8,3.6c0.8,0.8,0.9,2.1,0.1,2.9
					C413.4,86.3,412.9,86.5,412.4,86.5z M402.3,77.5c-0.5,0-0.9-0.2-1.3-0.5c-1.3-1.1-2.7-2.2-4-3.2c-0.9-0.7-1.1-2-0.4-2.9
					c0.7-0.9,2-1.1,2.9-0.4c1.4,1.1,2.8,2.2,4.1,3.3c0.9,0.7,1,2,0.3,2.9C403.5,77.3,402.9,77.5,402.3,77.5z M391.5,69.4
					c-0.4,0-0.8-0.1-1.2-0.4c-1.4-1-2.8-1.9-4.3-2.9c-1-0.6-1.2-1.9-0.6-2.9c0.6-1,1.9-1.2,2.9-0.6c1.5,0.9,2.9,1.9,4.4,2.9
					c0.9,0.7,1.2,2,0.5,2.9C392.8,69,392.2,69.4,391.5,69.4z M380.1,62.1c-0.4,0-0.7-0.1-1-0.3c-1.5-0.9-3-1.7-4.5-2.5
					c-1-0.5-1.4-1.8-0.9-2.8c0.5-1,1.8-1.4,2.8-0.9c1.5,0.8,3.1,1.7,4.6,2.6c1,0.6,1.3,1.8,0.8,2.8
					C381.5,61.7,380.8,62.1,380.1,62.1z M368.1,55.8c-0.3,0-0.6-0.1-0.9-0.2c-1.5-0.7-3.1-1.4-4.7-2.1c-1.1-0.4-1.6-1.7-1.1-2.7
					c0.4-1.1,1.7-1.6,2.7-1.1c1.6,0.7,3.2,1.4,4.8,2.1c1,0.5,1.5,1.7,1,2.8C369.7,55.4,368.9,55.8,368.1,55.8z M355.6,50.7
					c-0.2,0-0.5,0-0.7-0.1c-1.6-0.6-3.2-1.1-4.9-1.6c-1.1-0.3-1.7-1.5-1.4-2.6c0.3-1.1,1.5-1.7,2.6-1.4c1.7,0.5,3.4,1.1,5,1.7
					c1.1,0.4,1.6,1.6,1.3,2.7C357.3,50.2,356.5,50.7,355.6,50.7z"/>
			</g>
			<g>
				<g>
					<circle fill="#FFFFFF" cx="430.1" cy="104.3" r="7.6"/>
				</g>
			</g>
			<g>
				<g>
					<polygon fill="#FFFFFF" points="332.7,42.7 350.9,55.6 348,46.3 354.7,39.2 					"/>
				</g>
			</g>
		</g>
	</g>
	<g>
		<path fill="none" stroke="#FF7800" stroke-width="0.648" stroke-miterlimit="10" d="M258.8,214.5c7.8,0,14.1,6.3,14.1,14.1
			c0,9.1-7,11.3-7.3,21.9c0,0.4-0.3,0.7-0.7,0.7h-12.3c-0.4,0-0.7-0.3-0.7-0.7c-0.3-10.6-7.3-12.8-7.3-21.9
			C244.7,220.9,251,214.5,258.8,214.5L258.8,214.5z M254.2,258.4c3.1,0,6.1,0,9.2,0c0.1,0,0.3,0.1,0.4,0.2c0.1,0.1,0.1,0.2,0.1,0.4
			c-0.1,1-0.9,1.8-2,1.8c-2.1,0-4.2,0-6.3,0c-1,0-1.9-0.8-2-1.8c0-0.1,0-0.3,0.1-0.4C254,258.5,254.1,258.4,254.2,258.4L254.2,258.4
			z M253.5,255.3c3.6,0,7.2,0,10.8,0c0.1,0,0.3,0.1,0.4,0.2c0.1,0.1,0.1,0.2,0.1,0.4c-0.1,1-0.9,1.8-2,1.8c-2.6,0-5.2,0-7.8,0
			c-1,0-1.9-0.8-2-1.8c0-0.1,0-0.3,0.1-0.4C253.2,255.4,253.3,255.3,253.5,255.3L253.5,255.3z M252.7,252.2H265
			c0.1,0,0.3,0.1,0.4,0.2c0.1,0.1,0.1,0.2,0.1,0.4c-0.1,1-0.9,1.8-2,1.8h-9.4c-1,0-1.9-0.8-2-1.8c0-0.1,0-0.3,0.1-0.4
			C252.4,252.2,252.5,252.2,252.7,252.2z"/>
		<path fill="#FF7800" d="M254.2,258.4c3.1,0,6.1,0,9.2,0c0.1,0,0.3,0.1,0.4,0.2c0.1,0.1,0.1,0.2,0.1,0.4c-0.1,1-0.9,1.8-2,1.8
			c-2.1,0-4.2,0-6.3,0c-1,0-1.9-0.8-2-1.8c0-0.1,0-0.3,0.1-0.4C254,258.5,254.1,258.4,254.2,258.4L254.2,258.4z M253.5,255.3
			c3.6,0,7.2,0,10.8,0c0.1,0,0.3,0.1,0.4,0.2c0.1,0.1,0.1,0.2,0.1,0.4c-0.1,1-0.9,1.8-2,1.8c-2.6,0-5.2,0-7.8,0c-1,0-1.9-0.8-2-1.8
			c0-0.1,0-0.3,0.1-0.4C253.2,255.4,253.3,255.3,253.5,255.3L253.5,255.3z M252.7,252.2H265c0.1,0,0.3,0.1,0.4,0.2
			c0.1,0.1,0.1,0.2,0.1,0.4c-0.1,1-0.9,1.8-2,1.8h-9.4c-1,0-1.9-0.8-2-1.8c0-0.1,0-0.3,0.1-0.4C252.4,252.2,252.5,252.2,252.7,252.2
			z"/>
	</g>
	<g id="Layer_1_9_">
		<rect x="134.1" y="133.8" fill="none" stroke="#FF7800" stroke-width="0.8546" width="28" height="16.4"/>
		<rect x="39.3" y="133.8" fill="none" stroke="#FF7800" stroke-width="0.8546" width="95" height="16.4"/>
		<text transform="matrix(1 0 0 1 38.3491 156.2153)" fill="#FF7800" font-family="'Univers-Extended'" font-size="5.1273">R</text>
		<text transform="matrix(1 0 0 1 43.4715 156.2153)" fill="#FF7800" font-family="'Univers-Extended'" font-size="5.1273">E</text>
		<text transform="matrix(1 0 0 1 48.106 156.2153)" fill="#FF7800" font-family="'Univers-Extended'" font-size="5.1273">S</text>
		<text transform="matrix(1 0 0 1 53.2593 156.2153)" fill="#FF7800" font-family="'Univers-Extended'" font-size="5.1273">T</text>
		<text transform="matrix(1 0 0 1 57.5559 156.2153)" fill="#FF7800" font-family="'Univers-Extended'" font-size="5.1273">A</text>
		<text transform="matrix(1 0 0 1 62.8836 156.2153)" fill="#FF7800" font-family="'Univers-Extended'" font-size="5.1273">U</text>
		<text transform="matrix(1 0 0 1 68.4048 156.2153)" fill="#FF7800" font-family="'Univers-Extended'" font-size="5.1273">R</text>
		
			<text transform="matrix(1 0 0 1 73.656 156.2153)" fill="#FF7800" font-family="'Univers-Extended'" font-size="5.1273" letter-spacing="1">AN</text>
		<text transform="matrix(1 0 0 1 84.7918 156.2153)" fill="#FF7800" font-family="'Univers-Extended'" font-size="5.1273">T</text>
		<text transform="matrix(1 0 0 1 89.3455 156.2153)" fill="#FF7800" font-family="'Univers-Extended'" font-size="5.1273"> </text>
		<text transform="matrix(1 0 0 1 91.9964 156.2153)" fill="#FF7800" font-family="'Univers-Extended'" font-size="5.1273">P</text>
		<text transform="matrix(1 0 0 1 96.7283 156.2153)" fill="#FF7800" font-family="'Univers-Extended'" font-size="5.1273">A</text>
		<text transform="matrix(1 0 0 1 101.7017 156.2153)" fill="#FF7800" font-family="'Univers-Extended'" font-size="5.1273">Y</text>
		<text transform="matrix(1 0 0 1 106.8958 156.2153)" fill="#FF7800" font-family="'Univers-Extended'" font-size="5.1273">R</text>
		<text transform="matrix(1 0 0 1 111.9712 156.2153)" fill="#FF7800" font-family="'Univers-Extended'" font-size="5.1273">O</text>
		<text transform="matrix(1 0 0 1 117.8118 156.2153)" fill="#FF7800" font-family="'Univers-Extended'" font-size="5.1273">L</text>
		<text transform="matrix(1 0 0 1 122.1594 156.2153)" fill="#FF7800" font-family="'Univers-Extended'" font-size="5.1273">L </text>
		
			<text transform="matrix(1 0 0 1 128.9934 156.2153)" fill="#FF7800" font-family="'Univers-Extended'" font-size="5.1273" letter-spacing="1">E</text>
		<text transform="matrix(1 0 0 1 133.8455 156.2153)" fill="#FF7800" font-family="'Univers-Extended'" font-size="5.1273">X</text>
		<text transform="matrix(1 0 0 1 138.982 156.2153)" fill="#FF7800" font-family="'Univers-Extended'" font-size="5.1273">P</text>
		<text transform="matrix(1 0 0 1 144.012 156.2153)" fill="#FF7800" font-family="'Univers-Extended'" font-size="5.1273">E</text>
		<text transform="matrix(1 0 0 1 148.6931 156.2153)" fill="#FF7800" font-family="'Univers-Extended'" font-size="5.1273">R</text>
		<text transform="matrix(1 0 0 1 153.8667 156.2153)" fill="#FF7800" font-family="'Univers-Extended'" font-size="5.1273">T</text>
		<text transform="matrix(1 0 0 1 158.6451 156.2153)" fill="#FF7800" font-family="'Univers-Extended'" font-size="5.1273">S</text>
		<text transform="matrix(1 0 0 1 40.772 147.4638)" fill="#FF7800" font-family="'Univers-Bold'" font-size="13.6728">P</text>
		
			<text transform="matrix(1 0 0 1 48.1275 147.4638)" fill="#FF7800" font-family="'Univers-Bold'" font-size="13.6728" letter-spacing="-1">A</text>
		<text transform="matrix(1 0 0 1 56.5093 147.4638)" fill="#FF7800" font-family="'Univers-Bold'" font-size="13.6728">YMASTERS INC</text>
	</g>
	<g>
		<rect x="391.8" y="134.9" fill="#FF7800" width="49.6" height="64"/>
		<path fill="#FF5000" d="M408.3,142.6"/>
		<g>
			<path fill="#FF7800" d="M393.2,202.4c-0.1,0-0.1,0-0.2,0.1l-0.3,0.5c-0.1,0.1-0.1,0.2-0.1,0.2c0,0,0.1,0.1,0.2,0.1l0.2,0
				c0,0,0,0.1,0,0.2c-0.2,0-0.4,0-0.6,0c-0.2,0-0.3,0-0.4,0c-0.1,0-0.1-0.1,0-0.2l0.1,0c0.2,0,0.3-0.1,0.5-0.4
				c0.4-0.6,0.8-1.2,1.2-1.8c0.1-0.2,0.3-0.4,0.3-0.5c0.3,0,0.5-0.2,0.5-0.2h0c0,0,0.1,0,0.1,0.1c0,0.8,0,1.6,0,2.4
				c0,0.3,0,0.4,0.2,0.4l0.1,0c0,0,0,0.1,0,0.2c-0.2,0-0.4,0-0.6,0c-0.3,0-0.5,0-0.6,0c-0.1,0-0.1-0.1,0-0.2l0.1,0
				c0.2,0,0.2-0.1,0.2-0.2l0-0.6c0-0.1,0-0.1-0.1-0.1H393.2z M393.8,202.1c0.1,0,0.1,0,0.1-0.1l0-0.6c0-0.1,0-0.4,0-0.5h0
				c-0.1,0.1-0.2,0.3-0.3,0.5l-0.4,0.6c-0.1,0.1,0,0.1,0.1,0.1H393.8z"/>
			<path fill="#FF7800" d="M397.8,201c0.1-0.4,0.1-0.5-0.1-0.5l-0.1,0c0,0,0-0.1,0-0.2c0.2,0,0.4,0,0.6,0c0.1,0,0.3,0,0.4,0
				c0,0.2,0.1,0.5,0.4,1l0.2,0.5c0.2,0.4,0.2,0.5,0.3,0.6c0-0.1,0.1-0.2,0.1-0.3l0.2-0.7c0.1-0.3,0.2-0.6,0.2-0.7
				c0-0.2,0-0.3-0.2-0.3l-0.1,0c0,0,0-0.1,0-0.2c0.2,0,0.4,0,0.6,0c0.2,0,0.3,0,0.5,0c0,0,0,0.1,0,0.2l-0.1,0
				c-0.2,0-0.3,0.1-0.4,0.3c0,0.1-0.1,0.4-0.2,0.7l-0.3,1.1c-0.1,0.3-0.2,0.6-0.2,0.8c0,0-0.2,0-0.3,0c0,0-0.1-0.4-0.3-0.6l-0.5-1.1
				c-0.1-0.2-0.2-0.6-0.3-0.7c0,0.1,0,0.1-0.1,0.4l-0.3,0.9c-0.1,0.3-0.2,0.6-0.2,0.7c0,0.2,0,0.3,0.2,0.3l0.1,0c0,0,0,0.1,0,0.2
				c-0.2,0-0.4,0-0.6,0c-0.2,0-0.3,0-0.5,0c0,0,0-0.1,0-0.2l0.1,0c0.2,0,0.3-0.1,0.4-0.3c0-0.1,0.1-0.4,0.2-0.7L397.8,201z"/>
			<path fill="#FF7800" d="M402.9,201c0.1-0.4,0.1-0.5-0.1-0.5l-0.1,0c0,0,0-0.1,0-0.2c0.2,0,0.4,0,0.6,0c0.1,0,0.3,0,0.4,0
				c0,0.2,0.1,0.5,0.4,1l0.2,0.5c0.2,0.4,0.2,0.5,0.3,0.6c0-0.1,0.1-0.2,0.1-0.3l0.2-0.7c0.1-0.3,0.2-0.6,0.2-0.7
				c0-0.2,0-0.3-0.2-0.3l-0.1,0c0,0,0-0.1,0-0.2c0.2,0,0.4,0,0.6,0c0.2,0,0.3,0,0.5,0c0,0,0,0.1,0,0.2l-0.1,0
				c-0.2,0-0.3,0.1-0.4,0.3c0,0.1-0.1,0.4-0.2,0.7l-0.3,1.1c-0.1,0.3-0.2,0.6-0.2,0.8c0,0-0.2,0-0.3,0c0,0-0.1-0.4-0.3-0.6l-0.5-1.1
				c-0.1-0.2-0.2-0.6-0.3-0.7c0,0.1,0,0.1-0.1,0.4l-0.3,0.9c-0.1,0.3-0.2,0.6-0.2,0.7c0,0.2,0,0.3,0.2,0.3l0.1,0c0,0,0,0.1,0,0.2
				c-0.2,0-0.4,0-0.6,0c-0.2,0-0.3,0-0.5,0c0,0,0-0.1,0-0.2l0.1,0c0.2,0,0.3-0.1,0.4-0.3c0-0.1,0.1-0.4,0.2-0.7L402.9,201z"/>
			<path fill="#FF7800" d="M408.4,203.3c0,0,0,0.1,0,0.2c-0.2,0-0.5,0-0.7,0c-0.2,0-0.4,0-0.7,0c0,0,0-0.1,0-0.2l0.1,0
				c0.2,0,0.2-0.1,0.4-0.5l0.5-1.7c0.1-0.4,0.1-0.4-0.1-0.5l-0.1,0c0,0,0-0.1,0-0.2c0.3,0,0.5,0,0.7,0c0.2,0,0.4,0,0.6,0
				c0,0,0,0.1,0,0.2l-0.1,0c-0.2,0-0.2,0.1-0.4,0.5l-0.5,1.7c-0.1,0.4-0.1,0.4,0.1,0.5L408.4,203.3z"/>
			<path fill="#FF7800" d="M412.2,200.6c-0.1,0-0.1,0.1-0.1,0.1c0,0,0,0.2,0,0.5l0.1,0.9c0,0.1,0,0.4,0,0.5c0-0.1,0.2-0.2,0.3-0.4
				c0.3-0.4,0.6-0.9,0.9-1.3c0.1-0.1,0.1-0.1,0.1-0.2c0,0,0-0.1-0.1-0.1l-0.2,0c0,0,0-0.1,0-0.2c0.3,0,0.5,0,0.6,0
				c0.2,0,0.3,0,0.5,0c0,0,0,0.1,0,0.2l-0.1,0c-0.2,0-0.2,0.1-0.3,0.1c-0.1,0.1-0.3,0.4-0.6,0.8l-0.6,0.8c-0.4,0.6-0.6,0.9-0.8,1.2
				c0,0-0.1,0-0.2,0c-0.1,0-0.1,0-0.1,0c0-0.1,0-0.4,0-0.7l-0.1-1.6c0-0.4-0.1-0.5-0.2-0.5l-0.1,0c0,0,0-0.1,0-0.2
				c0.2,0,0.4,0,0.6,0c0.2,0,0.4,0,0.6,0c0,0,0,0.1,0,0.2L412.2,200.6z"/>
			<path fill="#FF7800" d="M417.9,200.4c0.3,0,0.6,0,0.6,0c0,0.1-0.2,0.4-0.2,0.7c0,0.1-0.1,0.1-0.2,0c0-0.2,0-0.3,0-0.4
				c0-0.1-0.2-0.2-0.4-0.2h-0.4c-0.2,0-0.2,0-0.2,0.2l-0.3,0.8c0,0.1,0,0.1,0.1,0.1h0.3c0.2,0,0.3,0,0.4-0.3l0.1-0.1
				c0,0,0.2,0,0.2,0c-0.1,0.1-0.1,0.3-0.2,0.5c-0.1,0.2-0.1,0.3-0.1,0.5c0,0-0.2,0-0.2,0l0-0.1c0-0.2,0-0.3-0.3-0.3h-0.3
				c-0.1,0-0.1,0-0.2,0.1l-0.2,0.6c-0.1,0.2-0.1,0.4-0.1,0.4c0,0.1,0.1,0.1,0.5,0.1c0.4,0,0.6,0,0.9-0.5c0.1,0,0.2,0,0.2,0
				c-0.1,0.2-0.3,0.6-0.4,0.7c-0.3,0-0.6,0-1.1,0H416c-0.2,0-0.4,0-0.7,0c0,0,0-0.1,0-0.2l0.2,0c0.2,0,0.3-0.1,0.4-0.5l0.5-1.7
				c0.1-0.4,0.1-0.5-0.1-0.5l-0.1,0c0,0,0-0.1,0-0.2c0.2,0,0.5,0,0.6,0H417.9z"/>
			<path fill="#FF7800" d="M421,201c0.1-0.3,0.1-0.4,0-0.4l-0.1,0c0,0,0-0.1,0-0.2c0.3,0,0.6,0,0.9,0c0.4,0,0.7,0,0.9,0.1
				c0.2,0.1,0.4,0.3,0.4,0.6c0,0.5-0.4,0.7-0.7,0.8c-0.1,0-0.1,0-0.1,0.1c0.1,0.6,0.2,1,0.3,1.1c0.1,0.1,0.2,0.1,0.3,0.1
				c0,0,0,0.1,0,0.1c-0.1,0-0.2,0-0.4,0c-0.2,0-0.3,0-0.4-0.1c-0.1-0.1-0.2-0.2-0.2-0.4l-0.1-0.7c0-0.2-0.1-0.2-0.2-0.2
				c-0.1,0-0.1,0-0.2,0.1l-0.2,0.6c-0.1,0.4-0.1,0.4,0.1,0.5l0.1,0c0,0,0,0.1,0,0.2c-0.2,0-0.5,0-0.7,0c-0.2,0-0.4,0-0.7,0
				c0,0-0.1-0.1,0-0.2l0.1,0c0.2,0,0.2-0.1,0.4-0.5L421,201z M421.9,200.6c-0.2,0-0.2,0-0.2,0.2l-0.3,1c0,0.1,0,0.1,0.2,0.1
				c0.4,0,0.8-0.4,0.8-0.8C422.4,200.8,422.3,200.6,421.9,200.6z"/>
			<path fill="#FF7800" d="M424.8,203.1c0-0.2,0-0.5,0.1-0.7c0,0,0.1,0,0.2,0c0,0.1,0,0.3,0.1,0.5c0.1,0.2,0.3,0.4,0.6,0.4
				c0.3,0,0.5-0.2,0.5-0.6c0-0.2-0.1-0.4-0.4-0.6l-0.1-0.1c-0.3-0.2-0.5-0.5-0.5-0.8c0-0.6,0.5-1,1.1-1c0.3,0,0.6,0.1,0.8,0.2
				c-0.1,0.1-0.1,0.3-0.2,0.6c0,0.1-0.2,0-0.2,0c0.1-0.3-0.1-0.6-0.5-0.6c-0.3,0-0.6,0.3-0.6,0.5c0,0.1,0.1,0.3,0.4,0.5l0.1,0.1
				c0.3,0.2,0.5,0.4,0.5,0.9c0,0.6-0.4,1-1.2,1C425.3,203.5,424.9,203.3,424.8,203.1z"/>
			<path fill="#FF7800" d="M430,202.4c-0.1,0-0.1,0-0.2,0.1l-0.3,0.5c-0.1,0.1-0.1,0.2-0.1,0.2c0,0,0.1,0.1,0.2,0.1l0.2,0
				c0,0,0,0.1,0,0.2c-0.2,0-0.4,0-0.6,0c-0.2,0-0.3,0-0.4,0c-0.1,0-0.1-0.1,0-0.2l0.1,0c0.2,0,0.3-0.1,0.5-0.4
				c0.4-0.6,0.8-1.2,1.2-1.8c0.1-0.2,0.3-0.4,0.3-0.5c0.3,0,0.5-0.2,0.5-0.2h0c0,0,0.1,0,0.1,0.1c0,0.8,0,1.6,0,2.4
				c0,0.3,0,0.4,0.2,0.4l0.1,0c0,0,0,0.1,0,0.2c-0.2,0-0.4,0-0.6,0c-0.3,0-0.5,0-0.6,0c-0.1,0,0-0.1,0-0.2l0.1,0
				c0.2,0,0.2-0.1,0.2-0.2l0-0.6c0-0.1,0-0.1-0.1-0.1H430z M430.6,202.1c0.1,0,0.1,0,0.1-0.1l0-0.6c0-0.1,0-0.4,0-0.5h0
				c-0.1,0.1-0.2,0.3-0.3,0.5L430,202c-0.1,0.1,0,0.1,0.1,0.1H430.6z"/>
			<path fill="#FF7800" d="M434.6,201c0.1-0.3,0.1-0.4,0-0.4l-0.1,0c0,0,0-0.1,0-0.2c0.3,0,0.6,0,0.9,0c0.4,0,0.7,0,0.9,0.1
				c0.2,0.1,0.4,0.3,0.4,0.6c0,0.5-0.4,0.7-0.7,0.8c-0.1,0-0.1,0-0.1,0.1c0.1,0.6,0.2,1,0.3,1.1c0.1,0.1,0.2,0.1,0.3,0.1
				c0,0,0,0.1,0,0.1c-0.1,0-0.2,0-0.4,0c-0.2,0-0.3,0-0.4-0.1c-0.1-0.1-0.2-0.2-0.2-0.4l-0.1-0.7c0-0.2-0.1-0.2-0.2-0.2
				c-0.1,0-0.1,0-0.2,0.1l-0.2,0.6c-0.1,0.4-0.1,0.4,0.1,0.5l0.1,0c0,0,0,0.1,0,0.2c-0.2,0-0.5,0-0.7,0c-0.2,0-0.4,0-0.7,0
				c0,0,0-0.1,0-0.2l0.1,0c0.2,0,0.2-0.1,0.4-0.5L434.6,201z M435.5,200.6c-0.2,0-0.2,0-0.2,0.2l-0.3,1c0,0.1,0,0.1,0.2,0.1
				c0.4,0,0.8-0.4,0.8-0.8C435.9,200.8,435.8,200.6,435.5,200.6z"/>
			<path fill="#FF7800" d="M440,203.3c0,0,0,0.1,0,0.2c-0.3,0-0.5,0-0.7,0c-0.2,0-0.4,0-0.7,0c0,0,0-0.1,0-0.2l0.2,0
				c0.2,0,0.2-0.1,0.4-0.5l0.1-0.2c0.1-0.2,0.1-0.4,0-0.6c-0.1-0.3-0.1-0.7-0.2-1c0-0.3-0.1-0.4-0.3-0.4l-0.1,0c0,0,0-0.1,0-0.2
				c0.2,0,0.4,0,0.6,0c0.2,0,0.4,0,0.6,0c0.1,0,0,0.1,0,0.2l-0.2,0c-0.1,0-0.1,0.1-0.1,0.1c0,0,0,0.1,0,0.3c0,0.3,0.1,0.8,0.2,1
				l0.6-0.8c0.2-0.2,0.3-0.4,0.3-0.5c0,0,0-0.1-0.1-0.1l-0.2,0c0,0,0-0.1,0-0.2c0.3,0,0.4,0,0.6,0c0.2,0,0.3,0,0.4,0
				c0,0,0,0.1,0,0.2l-0.1,0c-0.2,0-0.2,0.1-0.4,0.3c-0.3,0.3-0.6,0.7-0.9,1c-0.2,0.3-0.3,0.4-0.3,0.6l-0.1,0.3
				c-0.1,0.4-0.1,0.5,0.1,0.5L440,203.3z"/>
		</g>
		<g>
			<path fill="#FFFFFF" d="M404.1,188.7c-2.1,6.9-1.3,7.8,3.1,8.3l2.3,0.3c0.5,0.4,0.5,1.8-0.1,2.2c-4.4-0.2-7.6-0.3-11.2-0.3
				c-3.2,0-6.7,0.1-10.6,0.3c-0.7-0.4-0.7-1.9,0-2.2l2.2-0.3c5.5-0.7,6.3-2.1,8.3-8.9l8.7-29.3c2-6.8,1.7-8-1.6-8.3l-4-0.4
				c-0.5-0.4-0.3-1.5,0.2-1.7c7.7-1.3,12.3-3,15.5-4.7c0.6-0.1,1,0.1,1.1,0.4c-1.1,3-2.6,7-3.6,10.5L404.1,188.7z"/>
		</g>
		<g>
			<path fill="#FFFFFF" d="M392.7,141.5v-4.6h1.4c1,0,1.9,0.3,1.9,1.4c0,0.8-0.6,1.4-1.6,1.4h-0.7v1.8H392.7z M393.7,138.9
				c0.5,0,1.3,0.2,1.3-0.6c0-0.8-0.7-0.6-1.3-0.6V138.9z"/>
			<path fill="#FFFFFF" d="M396.4,141.5l1.7-4.6h1.2l1.6,4.6h-1l-0.3-1h-1.8l-0.3,1H396.4z M399.3,139.7l-0.6-2h0l-0.7,2H399.3z"/>
			<path fill="#FFFFFF" d="M402.5,140l-1.5-3.1h1.2l0.9,2.1l1-2.1h1l-1.5,3.1v1.5h-1V140z"/>
			<path fill="#FFFFFF" d="M409.1,141.5h-0.8l-1.2-3.9l0,0v3.9h-0.9v-4.6h1.6l1,3.3h0l1-3.3h1.6v4.6h-0.9v-3.9l0,0L409.1,141.5z"/>
			<path fill="#FFFFFF" d="M412.4,141.5l1.7-4.6h1.2l1.6,4.6h-1l-0.3-1h-1.8l-0.3,1H412.4z M415.3,139.7l-0.6-2h0l-0.7,2H415.3z"/>
			<path fill="#FFFFFF" d="M420.5,138.2c0-0.5-0.3-0.7-0.8-0.7c-0.4,0-0.7,0.2-0.7,0.6c0,0.5,0.4,0.6,0.8,0.6
				c0.7,0.2,1.7,0.4,1.7,1.3c0,1.1-1,1.5-2,1.5c-1.1,0-1.8-0.4-1.8-1.6h1c0,0.5,0.3,0.9,0.8,0.9c0.4,0,0.9-0.1,0.9-0.6
				c0-0.5-0.7-0.6-1-0.7c-0.6-0.2-1.5-0.5-1.5-1.3c0-1,1-1.5,1.9-1.5c0.9,0,1.6,0.5,1.6,1.4H420.5z"/>
			<path fill="#FFFFFF" d="M422.5,136.9h3.7v0.8h-1.4v3.8h-1v-3.8h-1.4V136.9z"/>
			<path fill="#FFFFFF" d="M427.4,136.9h3.1v0.8h-2.1v1.1h2v0.8h-2v1.2h2.2v0.8h-3.1V136.9z"/>
			<path fill="#FFFFFF" d="M432.9,141.5h-1v-4.6h2c0.8,0,1.6,0.3,1.6,1.2c0,0.6-0.4,1-1,1.1v0c0.8,0.1,0.8,0.5,0.8,1.2
				c0,0.3,0.1,0.8,0.3,1.1h-1.1c-0.1-0.4-0.1-0.8-0.2-1.2c0-0.3-0.1-0.6-0.4-0.6h-1V141.5z M432.9,138.8h0.8c0.4,0,0.7-0.2,0.7-0.6
				c0-0.4-0.3-0.6-0.7-0.6h-0.8V138.8z"/>
			<path fill="#FFFFFF" d="M439.3,138.2c0-0.5-0.3-0.7-0.8-0.7c-0.4,0-0.7,0.2-0.7,0.6c0,0.5,0.4,0.6,0.8,0.6
				c0.7,0.2,1.7,0.4,1.7,1.3c0,1.1-1,1.5-2,1.5c-1.1,0-1.8-0.4-1.8-1.6h1c0,0.5,0.3,0.9,0.8,0.9c0.4,0,0.9-0.1,0.9-0.6
				c0-0.5-0.7-0.6-1-0.7c-0.6-0.2-1.5-0.5-1.5-1.3c0-1,1-1.5,1.9-1.5c0.9,0,1.6,0.5,1.6,1.4H439.3z"/>
		</g>
		<g>
			<path fill="#FFFFFF" d="M436,152.7c0,5.2-2.7,12.1-6.3,16.3c-2.3,2.6-5.5,4.6-9.3,4.6c-6.2,0-7.8-4.6-7.8-9.1
				c0-5.6,2.6-12.3,6.1-16.2c2.6-3,5.7-5,9.3-5C434.2,143.2,436,148,436,152.7z M420.6,157c-1.6,4.3-2.4,8.5-2.4,10.8
				c0,2.6,1,3.7,2.3,3.7c1.6,0,3.1-1.7,4.6-4.6c2.6-5.3,5.3-13.4,5.3-17.7c0-1.5,0-3.8-2-3.8C425,145.4,422.4,152,420.6,157z"/>
		</g>
		<rect x="411.5" y="174.3" fill="none" width="29.4" height="10.9"/>
		
			<text transform="matrix(0.7 0 0 0.7 411.5493 179.0205)" fill="#FFFFFF" font-family="'AGaramondPro-BoldItalic'" font-size="6.5619" letter-spacing="1.4">year</text>
		<path fill="#FF5000" d="M481,142.1"/>
		<g>
			<path fill="#FFFFFF" d="M410.6,198.6c1.2-0.6,1.8-1.1,1.8-1.4c0-0.3-0.3-0.5-0.6-0.5c-0.4,0-0.7,0.2-0.7,0.5h-0.4
				c0-0.5,0.5-0.8,1.1-0.8c0.7,0,1.1,0.3,1.1,0.7c0,0.4-0.5,0.9-1.7,1.5v0h1.8v0.3h-2.3V198.6z"/>
			<path fill="#FFFFFF" d="M415.4,196.4c0.8,0,1.2,0.4,1.2,1.3c0,0.9-0.5,1.3-1.2,1.3c-0.8,0-1.2-0.4-1.2-1.3
				C414.2,196.8,414.6,196.4,415.4,196.4z M415.4,198.7c0.6,0,0.8-0.4,0.8-1c0-0.6-0.3-1-0.8-1c-0.6,0-0.8,0.4-0.8,1
				C414.6,198.3,414.8,198.7,415.4,198.7z"/>
			<path fill="#FFFFFF" d="M419.1,196.4c0.8,0,1.2,0.4,1.2,1.3c0,0.9-0.5,1.3-1.2,1.3c-0.8,0-1.2-0.4-1.2-1.3
				C417.8,196.8,418.3,196.4,419.1,196.4z M419.1,198.7c0.6,0,0.8-0.4,0.8-1c0-0.6-0.3-1-0.8-1c-0.6,0-0.8,0.4-0.8,1
				C418.2,198.3,418.5,198.7,419.1,198.7z"/>
			<path fill="#FFFFFF" d="M422.4,197.5h0.2c0.6,0,0.8-0.2,0.8-0.4c0-0.3-0.3-0.4-0.7-0.4c-0.4,0-0.7,0.1-0.7,0.4h-0.4
				c0-0.4,0.5-0.7,1-0.7c0.8,0,1.2,0.3,1.2,0.7c0,0.2-0.2,0.5-0.5,0.6v0c0.4,0.1,0.6,0.3,0.6,0.6c0,0.5-0.4,0.7-1.3,0.7
				c-0.7,0-1.1-0.3-1.1-0.7h0.4c0,0.3,0.3,0.4,0.7,0.4c0.5,0,0.8-0.2,0.8-0.5c0-0.3-0.3-0.4-0.9-0.4h-0.2V197.5z"/>
			<path fill="#FFFFFF" d="M425.1,197.8h1.3v0.3h-1.3V197.8z"/>
			<path fill="#FFFFFF" d="M427.7,198.6c1.2-0.6,1.8-1.1,1.8-1.4c0-0.3-0.3-0.5-0.6-0.5c-0.4,0-0.7,0.2-0.7,0.5h-0.4
				c0-0.5,0.5-0.8,1.1-0.8c0.7,0,1.1,0.3,1.1,0.7c0,0.4-0.5,0.9-1.7,1.5v0h1.8v0.3h-2.3V198.6z"/>
			<path fill="#FFFFFF" d="M432.5,196.4c0.8,0,1.2,0.4,1.2,1.3c0,0.9-0.5,1.3-1.2,1.3c-0.8,0-1.2-0.4-1.2-1.3
				C431.3,196.8,431.7,196.4,432.5,196.4z M432.5,198.7c0.6,0,0.8-0.4,0.8-1c0-0.6-0.3-1-0.8-1c-0.6,0-0.8,0.4-0.8,1
				C431.7,198.3,431.9,198.7,432.5,198.7z"/>
			<path fill="#FFFFFF" d="M436.1,196.8c-0.2,0.2-0.5,0.3-0.8,0.4v-0.3c0.3-0.1,0.6-0.3,0.8-0.5h0.4v2.4h-0.4V196.8z"/>
			<path fill="#FFFFFF" d="M439.1,197.5h0.2c0.6,0,0.8-0.2,0.8-0.4c0-0.3-0.3-0.4-0.7-0.4c-0.4,0-0.7,0.1-0.7,0.4h-0.4
				c0-0.4,0.5-0.7,1-0.7c0.8,0,1.2,0.3,1.2,0.7c0,0.2-0.2,0.5-0.5,0.6v0c0.4,0.1,0.6,0.3,0.6,0.6c0,0.5-0.4,0.7-1.3,0.7
				c-0.7,0-1.1-0.3-1.1-0.7h0.4c0,0.3,0.3,0.4,0.7,0.4c0.5,0,0.8-0.2,0.8-0.5c0-0.3-0.3-0.4-0.9-0.4h-0.2V197.5z"/>
		</g>
	</g>
</g>
</svg>
